
<global>
amp_veltrack=0
ampeg_release=1.50
xf_cccurve=gain
xfin_hicc1=127
xfout_hicc1=127
xfout_locc1=127
</global>

<group>
group_label=RR1
seq_length=8
seq_position=1

<region>
hivel=127
key=a#1
lovel=91
offset=1728
sample=Bass_staccatissimo_FF_A#1_RR1.opus
</region>

<region>
hivel=127
key=a#2
lovel=91
offset=1922
sample=Bass_staccatissimo_FF_A#2_RR1.opus
</region>

<region>
hivel=127
key=a#3
lovel=91
offset=1709
sample=Bass_staccatissimo_FF_A#3_RR1.opus
</region>

<region>
hikey=G5
hivel=127
lokey=a#4
lovel=91
offset=1292
pitch_keycenter=a#4
sample=Bass_staccatissimo_FF_A#4_RR1.opus
</region>

<region>
hivel=127
key=a2
lovel=91
offset=1369
sample=Bass_staccatissimo_FF_A2_RR1.opus
</region>

<region>
hivel=127
key=a3
lovel=91
offset=1820
sample=Bass_staccatissimo_FF_A3_RR1.opus
</region>

<region>
hivel=127
key=a4
lovel=91
offset=3344
sample=Bass_staccatissimo_FF_A4_RR1.opus
</region>

<region>
hivel=127
key=b1
lovel=91
offset=3498
sample=Bass_staccatissimo_FF_B1_RR1.opus
</region>

<region>
hivel=127
key=b2
lovel=91
offset=1935
sample=Bass_staccatissimo_FF_B2_RR1.opus
</region>

<region>
hivel=127
key=b3
lovel=91
offset=1272
sample=Bass_staccatissimo_FF_B3_RR1.opus
</region>

<region>
hivel=127
key=c#2
lovel=91
offset=4499
sample=Bass_staccatissimo_FF_C#2_RR1.opus
</region>

<region>
hivel=127
key=c#3
lovel=91
offset=601
sample=Bass_staccatissimo_FF_C#3_RR1.opus
</region>

<region>
hivel=127
key=c#4
lovel=91
offset=2451
sample=Bass_staccatissimo_FF_C#4_RR1.opus
</region>

<region>
hivel=127
key=c2
lovel=91
offset=10026
sample=Bass_staccatissimo_FF_C2_RR1.opus
</region>

<region>
hivel=127
key=c3
lovel=91
offset=1424
sample=Bass_staccatissimo_FF_C3_RR1.opus
</region>

<region>
hivel=127
key=c4
lovel=91
offset=2145
sample=Bass_staccatissimo_FF_C4_RR1.opus
</region>

<region>
hivel=127
key=d#2
lovel=91
offset=4746
sample=Bass_staccatissimo_FF_D#2_RR1.opus
</region>

<region>
hivel=127
key=d#3
lovel=91
offset=835
sample=Bass_staccatissimo_FF_D#3_RR1.opus
</region>

<region>
hivel=127
key=d#4
lovel=91
offset=1775
sample=Bass_staccatissimo_FF_D#4_RR1.opus
</region>

<region>
hivel=127
key=d2
lovel=91
offset=10830
sample=Bass_staccatissimo_FF_D2_RR1.opus
</region>

<region>
hivel=127
key=d3
lovel=91
offset=900
sample=Bass_staccatissimo_FF_D3_RR1.opus
</region>

<region>
hivel=127
key=d4
lovel=91
offset=1883
sample=Bass_staccatissimo_FF_D4_RR1.opus
</region>

<region>
hivel=127
key=e2
lovel=91
offset=10714
sample=Bass_staccatissimo_FF_E2_RR1.opus
</region>

<region>
hivel=127
key=e3
lovel=91
offset=981
sample=Bass_staccatissimo_FF_E3_RR1.opus
</region>

<region>
hivel=127
key=e4
lovel=91
offset=2061
sample=Bass_staccatissimo_FF_E4_RR1.opus
</region>

<region>
hivel=127
key=f#2
lovel=91
offset=5898
sample=Bass_staccatissimo_FF_F#2_RR1.opus
</region>

<region>
hivel=127
key=f#3
lovel=91
offset=1942
sample=Bass_staccatissimo_FF_F#3_RR1.opus
</region>

<region>
hivel=127
key=f#4
lovel=91
offset=6272
sample=Bass_staccatissimo_FF_F#4_RR1.opus
</region>

<region>
hivel=127
key=f2
lovel=91
offset=2948
sample=Bass_staccatissimo_FF_F2_RR1.opus
</region>

<region>
hivel=127
key=f3
lovel=91
offset=788
sample=Bass_staccatissimo_FF_F3_RR1.opus
</region>

<region>
hivel=127
key=f4
lovel=91
offset=2880
sample=Bass_staccatissimo_FF_F4_RR1.opus
</region>

<region>
hivel=127
key=g#2
lovel=91
offset=2187
sample=Bass_staccatissimo_FF_G#2_RR1.opus
</region>

<region>
hivel=127
key=g#3
lovel=91
offset=1736
sample=Bass_staccatissimo_FF_G#3_RR1.opus
</region>

<region>
hivel=127
key=g#4
lovel=91
offset=1510
sample=Bass_staccatissimo_FF_G#4_RR1.opus
</region>

<region>
hivel=127
key=g2
lovel=91
offset=3658
sample=Bass_staccatissimo_FF_G2_RR1.opus
</region>

<region>
hivel=127
key=g3
lovel=91
offset=11142
sample=Bass_staccatissimo_FF_G3_RR1.opus
</region>

<region>
hivel=127
key=g4
lovel=91
offset=6597
sample=Bass_staccatissimo_FF_G4_RR1.opus
</region>

<region>
hivel=90
key=a#1
lovel=46
offset=897
sample=Bass_staccatissimo_MF_A#1_RR1.opus
</region>

<region>
hivel=90
key=a#2
lovel=46
offset=1130
sample=Bass_staccatissimo_MF_A#2_RR1.opus
</region>

<region>
hivel=90
key=a#3
lovel=46
offset=2086
sample=Bass_staccatissimo_MF_A#3_RR1.opus
</region>

<region>
hikey=G5
hivel=90
lokey=a#4
lovel=46
offset=1941
pitch_keycenter=a#4
sample=Bass_staccatissimo_MF_A#4_RR1.opus
</region>

<region>
hivel=90
key=a2
lovel=46
offset=2097
sample=Bass_staccatissimo_MF_A2_RR1.opus
</region>

<region>
hivel=90
key=a3
lovel=46
offset=395
sample=Bass_staccatissimo_MF_A3_RR1.opus
</region>

<region>
hivel=90
key=a4
lovel=46
offset=3007
sample=Bass_staccatissimo_MF_A4_RR1.opus
</region>

<region>
hivel=90
key=b1
lovel=46
offset=9933
sample=Bass_staccatissimo_MF_B1_RR1.opus
</region>

<region>
hivel=90
key=b2
lovel=46
offset=1901
sample=Bass_staccatissimo_MF_B2_RR1.opus
</region>

<region>
hivel=90
key=b3
lovel=46
sample=Bass_staccatissimo_MF_B3_RR1.opus
</region>

<region>
hivel=90
key=c#2
lovel=46
offset=3807
sample=Bass_staccatissimo_MF_C#2_RR1.opus
</region>

<region>
hivel=90
key=c#3
lovel=46
offset=942
sample=Bass_staccatissimo_MF_C#3_RR1.opus
</region>

<region>
hivel=90
key=c#4
lovel=46
offset=3903
sample=Bass_staccatissimo_MF_C#4_RR1.opus
</region>

<region>
hivel=90
key=c2
lovel=46
offset=2493
sample=Bass_staccatissimo_MF_C2_RR1.opus
</region>

<region>
hivel=90
key=c3
lovel=46
offset=916
sample=Bass_staccatissimo_MF_C3_RR1.opus
</region>

<region>
hivel=90
key=c4
lovel=46
offset=427
sample=Bass_staccatissimo_MF_C4_RR1.opus
</region>

<region>
hivel=90
key=d#2
lovel=46
offset=4511
sample=Bass_staccatissimo_MF_D#2_RR1.opus
</region>

<region>
hivel=90
key=d#3
lovel=46
offset=1078
sample=Bass_staccatissimo_MF_D#3_RR1.opus
</region>

<region>
hivel=90
key=d#4
lovel=46
offset=4380
sample=Bass_staccatissimo_MF_D#4_RR1.opus
</region>

<region>
hivel=90
key=d2
lovel=46
offset=4725
sample=Bass_staccatissimo_MF_D2_RR1.opus
</region>

<region>
hivel=90
key=d3
lovel=46
offset=1138
sample=Bass_staccatissimo_MF_D3_RR1.opus
</region>

<region>
hivel=90
key=d4
lovel=46
offset=2046
sample=Bass_staccatissimo_MF_D4_RR1.opus
</region>

<region>
hivel=90
key=e2
lovel=46
offset=5534
sample=Bass_staccatissimo_MF_E2_RR1.opus
</region>

<region>
hivel=90
key=e3
lovel=46
offset=1527
sample=Bass_staccatissimo_MF_E3_RR1.opus
</region>

<region>
hivel=90
key=e4
lovel=46
offset=4078
sample=Bass_staccatissimo_MF_E4_RR1.opus
</region>

<region>
hivel=90
key=f#2
lovel=46
offset=7146
sample=Bass_staccatissimo_MF_F#2_RR1.opus
</region>

<region>
hivel=90
key=f#3
lovel=46
offset=1123
sample=Bass_staccatissimo_MF_F#3_RR1.opus
</region>

<region>
hivel=90
key=f#4
lovel=46
offset=5881
sample=Bass_staccatissimo_MF_F#4_RR1.opus
</region>

<region>
hivel=90
key=f2
lovel=46
offset=4392
sample=Bass_staccatissimo_MF_F2_RR1.opus
</region>

<region>
hivel=90
key=f3
lovel=46
offset=946
sample=Bass_staccatissimo_MF_F3_RR1.opus
</region>

<region>
hivel=90
key=f4
lovel=46
offset=5156
sample=Bass_staccatissimo_MF_F4_RR1.opus
</region>

<region>
hivel=90
key=g#2
lovel=46
offset=8211
sample=Bass_staccatissimo_MF_G#2_RR1.opus
</region>

<region>
hivel=90
key=g#3
lovel=46
offset=700
sample=Bass_staccatissimo_MF_G#3_RR1.opus
</region>

<region>
hivel=90
key=g#4
lovel=46
offset=3545
sample=Bass_staccatissimo_MF_G#4_RR1.opus
</region>

<region>
hivel=90
key=g2
lovel=46
offset=7324
sample=Bass_staccatissimo_MF_G2_RR1.opus
</region>

<region>
hivel=90
key=g3
lovel=46
offset=1519
sample=Bass_staccatissimo_MF_G3_RR1.opus
</region>

<region>
hivel=90
key=g4
lovel=46
offset=2013
sample=Bass_staccatissimo_MF_G4_RR1.opus
</region>

<region>
hivel=45
key=a#1
lovel=0
offset=2014
sample=Bass_staccatissimo_PP_A#1_RR1.opus
</region>

<region>
hivel=45
key=a#2
lovel=0
offset=8333
sample=Bass_staccatissimo_PP_A#2_RR1.opus
</region>

<region>
hivel=45
key=a#3
lovel=0
sample=Bass_staccatissimo_PP_A#3_RR1.opus
</region>

<region>
hikey=G5
hivel=45
lokey=a#4
lovel=0
offset=1308
pitch_keycenter=a#4
sample=Bass_staccatissimo_PP_A#4_RR1.opus
</region>

<region>
hivel=45
key=a2
lovel=0
offset=1703
sample=Bass_staccatissimo_PP_A2_RR1.opus
</region>

<region>
hivel=45
key=a3
lovel=0
sample=Bass_staccatissimo_PP_A3_RR1.opus
</region>

<region>
hivel=45
key=a4
lovel=0
offset=2782
sample=Bass_staccatissimo_PP_A4_RR1.opus
</region>

<region>
hivel=45
key=b1
lovel=0
offset=1113
sample=Bass_staccatissimo_PP_B1_RR1.opus
</region>

<region>
hivel=45
key=b2
lovel=0
offset=772
sample=Bass_staccatissimo_PP_B2_RR1.opus
</region>

<region>
hivel=45
key=b3
lovel=0
sample=Bass_staccatissimo_PP_B3_RR1.opus
</region>

<region>
hivel=45
key=c#2
lovel=0
offset=194
sample=Bass_staccatissimo_PP_C#2_RR1.opus
</region>

<region>
hivel=45
key=c#3
lovel=0
offset=198
sample=Bass_staccatissimo_PP_C#3_RR1.opus
</region>

<region>
hivel=45
key=c#4
lovel=0
offset=3869
sample=Bass_staccatissimo_PP_C#4_RR1.opus
</region>

<region>
hivel=45
key=c2
lovel=0
offset=3219
sample=Bass_staccatissimo_PP_C2_RR1.opus
</region>

<region>
hivel=45
key=c3
lovel=0
offset=1855
sample=Bass_staccatissimo_PP_C3_RR1.opus
</region>

<region>
hivel=45
key=c4
lovel=0
offset=4094
sample=Bass_staccatissimo_PP_C4_RR1.opus
</region>

<region>
hivel=45
key=d#2
lovel=0
offset=211
sample=Bass_staccatissimo_PP_D#2_RR1.opus
</region>

<region>
hivel=45
key=d#3
lovel=0
offset=816
sample=Bass_staccatissimo_PP_D#3_RR1.opus
</region>

<region>
hivel=45
key=d#4
lovel=0
sample=Bass_staccatissimo_PP_D#4_RR1.opus
</region>

<region>
hivel=45
key=d2
lovel=0
offset=65
sample=Bass_staccatissimo_PP_D2_RR1.opus
</region>

<region>
hivel=45
key=d3
lovel=0
offset=2064
sample=Bass_staccatissimo_PP_D3_RR1.opus
</region>

<region>
hivel=45
key=d4
lovel=0
sample=Bass_staccatissimo_PP_D4_RR1.opus
</region>

<region>
hivel=45
key=e2
lovel=0
sample=Bass_staccatissimo_PP_E2_RR1.opus
</region>

<region>
hivel=45
key=e3
lovel=0
offset=1350
sample=Bass_staccatissimo_PP_E3_RR1.opus
</region>

<region>
hivel=45
key=e4
lovel=0
offset=3810
sample=Bass_staccatissimo_PP_E4_RR1.opus
</region>

<region>
hivel=45
key=f#2
lovel=0
offset=7790
sample=Bass_staccatissimo_PP_F#2_RR1.opus
</region>

<region>
hivel=45
key=f#3
lovel=0
offset=3147
sample=Bass_staccatissimo_PP_F#3_RR1.opus
</region>

<region>
hivel=45
key=f#4
lovel=0
offset=4708
sample=Bass_staccatissimo_PP_F#4_RR1.opus
</region>

<region>
hivel=45
key=f2
lovel=0
offset=636
sample=Bass_staccatissimo_PP_F2_RR1.opus
</region>

<region>
hivel=45
key=f3
lovel=0
offset=320
sample=Bass_staccatissimo_PP_F3_RR1.opus
</region>

<region>
hivel=45
key=f4
lovel=0
offset=6268
sample=Bass_staccatissimo_PP_F4_RR1.opus
</region>

<region>
hivel=45
key=g#2
lovel=0
offset=940
sample=Bass_staccatissimo_PP_G#2_RR1.opus
</region>

<region>
hivel=45
key=g#3
lovel=0
offset=469
sample=Bass_staccatissimo_PP_G#3_RR1.opus
</region>

<region>
hivel=45
key=g#4
lovel=0
offset=1561
sample=Bass_staccatissimo_PP_G#4_RR1.opus
</region>

<region>
hivel=45
key=g2
lovel=0
offset=7755
sample=Bass_staccatissimo_PP_G2_RR1.opus
</region>

<region>
hivel=45
key=g3
lovel=0
offset=2931
sample=Bass_staccatissimo_PP_G3_RR1.opus
</region>

<region>
hivel=45
key=g4
lovel=0
offset=2513
sample=Bass_staccatissimo_PP_G4_RR1.opus
</region>
</group>

<group>
group_label=RR2
seq_length=8
seq_position=2

<region>
hivel=127
key=a#1
lovel=91
offset=2048
sample=Bass_staccatissimo_FF_A#1_RR2.opus
</region>

<region>
hivel=127
key=a#2
lovel=91
offset=1302
sample=Bass_staccatissimo_FF_A#2_RR2.opus
</region>

<region>
hivel=127
key=a#3
lovel=91
offset=1441
sample=Bass_staccatissimo_FF_A#3_RR2.opus
</region>

<region>
hikey=G5
hivel=127
lokey=a#4
lovel=91
offset=1225
pitch_keycenter=a#4
sample=Bass_staccatissimo_FF_A#4_RR2.opus
</region>

<region>
hivel=127
key=a2
lovel=91
offset=2288
sample=Bass_staccatissimo_FF_A2_RR2.opus
</region>

<region>
hivel=127
key=a3
lovel=91
offset=1063
sample=Bass_staccatissimo_FF_A3_RR2.opus
</region>

<region>
hivel=127
key=a4
lovel=91
offset=2176
sample=Bass_staccatissimo_FF_A4_RR2.opus
</region>

<region>
hivel=127
key=b1
lovel=91
offset=2908
sample=Bass_staccatissimo_FF_B1_RR2.opus
</region>

<region>
hivel=127
key=b2
lovel=91
offset=1677
sample=Bass_staccatissimo_FF_B2_RR2.opus
</region>

<region>
hivel=127
key=b3
lovel=91
offset=1149
sample=Bass_staccatissimo_FF_B3_RR2.opus
</region>

<region>
hivel=127
key=c#2
lovel=91
offset=4972
sample=Bass_staccatissimo_FF_C#2_RR2.opus
</region>

<region>
hivel=127
key=c#3
lovel=91
offset=883
sample=Bass_staccatissimo_FF_C#3_RR2.opus
</region>

<region>
hivel=127
key=c#4
lovel=91
offset=1324
sample=Bass_staccatissimo_FF_C#4_RR2.opus
</region>

<region>
hivel=127
key=c2
lovel=91
offset=8095
sample=Bass_staccatissimo_FF_C2_RR2.opus
</region>

<region>
hivel=127
key=c3
lovel=91
offset=1483
sample=Bass_staccatissimo_FF_C3_RR2.opus
</region>

<region>
hivel=127
key=c4
lovel=91
offset=2355
sample=Bass_staccatissimo_FF_C4_RR2.opus
</region>

<region>
hivel=127
key=d#2
lovel=91
offset=4010
sample=Bass_staccatissimo_FF_D#2_RR2.opus
</region>

<region>
hivel=127
key=d#3
lovel=91
offset=1160
sample=Bass_staccatissimo_FF_D#3_RR2.opus
</region>

<region>
hivel=127
key=d#4
lovel=91
offset=1311
sample=Bass_staccatissimo_FF_D#4_RR2.opus
</region>

<region>
hivel=127
key=d2
lovel=91
offset=3092
sample=Bass_staccatissimo_FF_D2_RR2.opus
</region>

<region>
hivel=127
key=d3
lovel=91
offset=1509
sample=Bass_staccatissimo_FF_D3_RR2.opus
</region>

<region>
hivel=127
key=d4
lovel=91
offset=1207
sample=Bass_staccatissimo_FF_D4_RR2.opus
</region>

<region>
hivel=127
key=e2
lovel=91
offset=1827
sample=Bass_staccatissimo_FF_E2_RR2.opus
</region>

<region>
hivel=127
key=e3
lovel=91
offset=711
sample=Bass_staccatissimo_FF_E3_RR2.opus
</region>

<region>
hivel=127
key=e4
lovel=91
offset=2911
sample=Bass_staccatissimo_FF_E4_RR2.opus
</region>

<region>
hivel=127
key=f#2
lovel=91
offset=2882
sample=Bass_staccatissimo_FF_F#2_RR2.opus
</region>

<region>
hivel=127
key=f#3
lovel=91
offset=647
sample=Bass_staccatissimo_FF_F#3_RR2.opus
</region>

<region>
hivel=127
key=f#4
lovel=91
offset=2856
sample=Bass_staccatissimo_FF_F#4_RR2.opus
</region>

<region>
hivel=127
key=f2
lovel=91
offset=3443
sample=Bass_staccatissimo_FF_F2_RR2.opus
</region>

<region>
hivel=127
key=f3
lovel=91
offset=1099
sample=Bass_staccatissimo_FF_F3_RR2.opus
</region>

<region>
hivel=127
key=f4
lovel=91
offset=6040
sample=Bass_staccatissimo_FF_F4_RR2.opus
</region>

<region>
hivel=127
key=g#2
lovel=91
offset=5108
sample=Bass_staccatissimo_FF_G#2_RR2.opus
</region>

<region>
hivel=127
key=g#3
lovel=91
offset=977
sample=Bass_staccatissimo_FF_G#3_RR2.opus
</region>

<region>
hivel=127
key=g#4
lovel=91
offset=2152
sample=Bass_staccatissimo_FF_G#4_RR2.opus
</region>

<region>
hivel=127
key=g2
lovel=91
offset=2950
sample=Bass_staccatissimo_FF_G2_RR2.opus
</region>

<region>
hivel=127
key=g3
lovel=91
offset=517
sample=Bass_staccatissimo_FF_G3_RR2.opus
</region>

<region>
hivel=127
key=g4
lovel=91
offset=5347
sample=Bass_staccatissimo_FF_G4_RR2.opus
</region>

<region>
hivel=90
key=a#1
lovel=46
offset=1133
sample=Bass_staccatissimo_MF_A#1_RR2.opus
</region>

<region>
hivel=90
key=a#2
lovel=46
offset=1119
sample=Bass_staccatissimo_MF_A#2_RR2.opus
</region>

<region>
hivel=90
key=a#3
lovel=46
offset=1399
sample=Bass_staccatissimo_MF_A#3_RR2.opus
</region>

<region>
hikey=G5
hivel=90
lokey=a#4
lovel=46
offset=1610
pitch_keycenter=a#4
sample=Bass_staccatissimo_MF_A#4_RR2.opus
</region>

<region>
hivel=90
key=a2
lovel=46
offset=1311
sample=Bass_staccatissimo_MF_A2_RR2.opus
</region>

<region>
hivel=90
key=a3
lovel=46
offset=1488
sample=Bass_staccatissimo_MF_A3_RR2.opus
</region>

<region>
hivel=90
key=a4
lovel=46
offset=1955
sample=Bass_staccatissimo_MF_A4_RR2.opus
</region>

<region>
hivel=90
key=b1
lovel=46
offset=6896
sample=Bass_staccatissimo_MF_B1_RR2.opus
</region>

<region>
hivel=90
key=b2
lovel=46
offset=1506
sample=Bass_staccatissimo_MF_B2_RR2.opus
</region>

<region>
hivel=90
key=b3
lovel=46
offset=3421
sample=Bass_staccatissimo_MF_B3_RR2.opus
</region>

<region>
hivel=90
key=c#2
lovel=46
offset=3585
sample=Bass_staccatissimo_MF_C#2_RR2.opus
</region>

<region>
hivel=90
key=c#3
lovel=46
offset=1456
sample=Bass_staccatissimo_MF_C#3_RR2.opus
</region>

<region>
hivel=90
key=c#4
lovel=46
offset=5112
sample=Bass_staccatissimo_MF_C#4_RR2.opus
</region>

<region>
hivel=90
key=c2
lovel=46
offset=3784
sample=Bass_staccatissimo_MF_C2_RR2.opus
</region>

<region>
hivel=90
key=c3
lovel=46
offset=1649
sample=Bass_staccatissimo_MF_C3_RR2.opus
</region>

<region>
hivel=90
key=c4
lovel=46
offset=6729
sample=Bass_staccatissimo_MF_C4_RR2.opus
</region>

<region>
hivel=90
key=d#2
lovel=46
offset=1910
sample=Bass_staccatissimo_MF_D#2_RR2.opus
</region>

<region>
hivel=90
key=d#3
lovel=46
offset=475
sample=Bass_staccatissimo_MF_D#3_RR2.opus
</region>

<region>
hivel=90
key=d#4
lovel=46
offset=1680
sample=Bass_staccatissimo_MF_D#4_RR2.opus
</region>

<region>
hivel=90
key=d2
lovel=46
offset=5476
sample=Bass_staccatissimo_MF_D2_RR2.opus
</region>

<region>
hivel=90
key=d3
lovel=46
offset=896
sample=Bass_staccatissimo_MF_D3_RR2.opus
</region>

<region>
hivel=90
key=d4
lovel=46
offset=1709
sample=Bass_staccatissimo_MF_D4_RR2.opus
</region>

<region>
hivel=90
key=e2
lovel=46
offset=2406
sample=Bass_staccatissimo_MF_E2_RR2.opus
</region>

<region>
hivel=90
key=e3
lovel=46
offset=722
sample=Bass_staccatissimo_MF_E3_RR2.opus
</region>

<region>
hivel=90
key=e4
lovel=46
offset=3038
sample=Bass_staccatissimo_MF_E4_RR2.opus
</region>

<region>
hivel=90
key=f#2
lovel=46
offset=2239
sample=Bass_staccatissimo_MF_F#2_RR2.opus
</region>

<region>
hivel=90
key=f#3
lovel=46
offset=1071
sample=Bass_staccatissimo_MF_F#3_RR2.opus
</region>

<region>
hivel=90
key=f#4
lovel=46
offset=5373
sample=Bass_staccatissimo_MF_F#4_RR2.opus
</region>

<region>
hivel=90
key=f2
lovel=46
offset=2413
sample=Bass_staccatissimo_MF_F2_RR2.opus
</region>

<region>
hivel=90
key=f3
lovel=46
offset=1778
sample=Bass_staccatissimo_MF_F3_RR2.opus
</region>

<region>
hivel=90
key=f4
lovel=46
offset=8543
sample=Bass_staccatissimo_MF_F4_RR2.opus
</region>

<region>
hivel=90
key=g#2
lovel=46
offset=2782
sample=Bass_staccatissimo_MF_G#2_RR2.opus
</region>

<region>
hivel=90
key=g#3
lovel=46
offset=927
sample=Bass_staccatissimo_MF_G#3_RR2.opus
</region>

<region>
hivel=90
key=g#4
lovel=46
offset=2626
sample=Bass_staccatissimo_MF_G#4_RR2.opus
</region>

<region>
hivel=90
key=g2
lovel=46
offset=9211
sample=Bass_staccatissimo_MF_G2_RR2.opus
</region>

<region>
hivel=90
key=g3
lovel=46
offset=1251
sample=Bass_staccatissimo_MF_G3_RR2.opus
</region>

<region>
hivel=90
key=g4
lovel=46
offset=3180
sample=Bass_staccatissimo_MF_G4_RR2.opus
</region>

<region>
hivel=45
key=a#1
lovel=0
sample=Bass_staccatissimo_PP_A#1_RR2.opus
</region>

<region>
hivel=45
key=a#2
lovel=0
offset=546
sample=Bass_staccatissimo_PP_A#2_RR2.opus
</region>

<region>
hivel=45
key=a#3
lovel=0
sample=Bass_staccatissimo_PP_A#3_RR2.opus
</region>

<region>
hikey=G5
hivel=45
lokey=a#4
lovel=0
offset=1433
pitch_keycenter=a#4
sample=Bass_staccatissimo_PP_A#4_RR2.opus
</region>

<region>
hivel=45
key=a2
lovel=0
offset=3002
sample=Bass_staccatissimo_PP_A2_RR2.opus
</region>

<region>
hivel=45
key=a3
lovel=0
sample=Bass_staccatissimo_PP_A3_RR2.opus
</region>

<region>
hivel=45
key=a4
lovel=0
offset=5741
sample=Bass_staccatissimo_PP_A4_RR2.opus
</region>

<region>
hivel=45
key=b1
lovel=0
offset=1164
sample=Bass_staccatissimo_PP_B1_RR2.opus
</region>

<region>
hivel=45
key=b2
lovel=0
offset=750
sample=Bass_staccatissimo_PP_B2_RR2.opus
</region>

<region>
hivel=45
key=b3
lovel=0
offset=1056
sample=Bass_staccatissimo_PP_B3_RR2.opus
</region>

<region>
hivel=45
key=c#2
lovel=0
offset=206
sample=Bass_staccatissimo_PP_C#2_RR2.opus
</region>

<region>
hivel=45
key=c#3
lovel=0
offset=1698
sample=Bass_staccatissimo_PP_C#3_RR2.opus
</region>

<region>
hivel=45
key=c#4
lovel=0
offset=4568
sample=Bass_staccatissimo_PP_C#4_RR2.opus
</region>

<region>
hivel=45
key=c2
lovel=0
offset=1739
sample=Bass_staccatissimo_PP_C2_RR2.opus
</region>

<region>
hivel=45
key=c3
lovel=0
offset=284
sample=Bass_staccatissimo_PP_C3_RR2.opus
</region>

<region>
hivel=45
key=c4
lovel=0
offset=3003
sample=Bass_staccatissimo_PP_C4_RR2.opus
</region>

<region>
hivel=45
key=d#2
lovel=0
offset=5212
sample=Bass_staccatissimo_PP_D#2_RR2.opus
</region>

<region>
hivel=45
key=d#3
lovel=0
sample=Bass_staccatissimo_PP_D#3_RR2.opus
</region>

<region>
hivel=45
key=d#4
lovel=0
offset=2369
sample=Bass_staccatissimo_PP_D#4_RR2.opus
</region>

<region>
hivel=45
key=d2
lovel=0
offset=2959
sample=Bass_staccatissimo_PP_D2_RR2.opus
</region>

<region>
hivel=45
key=d3
lovel=0
offset=950
sample=Bass_staccatissimo_PP_D3_RR2.opus
</region>

<region>
hivel=45
key=d4
lovel=0
offset=2998
sample=Bass_staccatissimo_PP_D4_RR2.opus
</region>

<region>
hivel=45
key=e2
lovel=0
sample=Bass_staccatissimo_PP_E2_RR2.opus
</region>

<region>
hivel=45
key=e3
lovel=0
offset=1316
sample=Bass_staccatissimo_PP_E3_RR2.opus
</region>

<region>
hivel=45
key=e4
lovel=0
offset=4434
sample=Bass_staccatissimo_PP_E4_RR2.opus
</region>

<region>
hivel=45
key=f#2
lovel=0
offset=1899
sample=Bass_staccatissimo_PP_F#2_RR2.opus
</region>

<region>
hivel=45
key=f#3
lovel=0
offset=3324
sample=Bass_staccatissimo_PP_F#3_RR2.opus
</region>

<region>
hivel=45
key=f#4
lovel=0
offset=5274
sample=Bass_staccatissimo_PP_F#4_RR2.opus
</region>

<region>
hivel=45
key=f2
lovel=0
offset=7816
sample=Bass_staccatissimo_PP_F2_RR2.opus
</region>

<region>
hivel=45
key=f3
lovel=0
offset=2871
sample=Bass_staccatissimo_PP_F3_RR2.opus
</region>

<region>
hivel=45
key=f4
lovel=0
offset=3356
sample=Bass_staccatissimo_PP_F4_RR2.opus
</region>

<region>
hivel=45
key=g#2
lovel=0
offset=4260
sample=Bass_staccatissimo_PP_G#2_RR2.opus
</region>

<region>
hivel=45
key=g#3
lovel=0
offset=229
sample=Bass_staccatissimo_PP_G#3_RR2.opus
</region>

<region>
hivel=45
key=g#4
lovel=0
offset=1648
sample=Bass_staccatissimo_PP_G#4_RR2.opus
</region>

<region>
hivel=45
key=g2
lovel=0
offset=588
sample=Bass_staccatissimo_PP_G2_RR2.opus
</region>

<region>
hivel=45
key=g3
lovel=0
offset=2242
sample=Bass_staccatissimo_PP_G3_RR2.opus
</region>

<region>
hivel=45
key=g4
lovel=0
offset=2715
sample=Bass_staccatissimo_PP_G4_RR2.opus
</region>
</group>

<group>
group_label=RR3
seq_length=8
seq_position=3

<region>
hivel=127
key=a#1
lovel=91
offset=1269
sample=Bass_staccatissimo_FF_A#1_RR3.opus
</region>

<region>
hivel=127
key=a#2
lovel=91
offset=795
sample=Bass_staccatissimo_FF_A#2_RR3.opus
</region>

<region>
hivel=127
key=a#3
lovel=91
offset=1779
sample=Bass_staccatissimo_FF_A#3_RR3.opus
</region>

<region>
hikey=G5
hivel=127
lokey=a#4
lovel=91
offset=1055
pitch_keycenter=a#4
sample=Bass_staccatissimo_FF_A#4_RR3.opus
</region>

<region>
hivel=127
key=a2
lovel=91
offset=2861
sample=Bass_staccatissimo_FF_A2_RR3.opus
</region>

<region>
hivel=127
key=a3
lovel=91
offset=1926
sample=Bass_staccatissimo_FF_A3_RR3.opus
</region>

<region>
hivel=127
key=a4
lovel=91
offset=1769
sample=Bass_staccatissimo_FF_A4_RR3.opus
</region>

<region>
hivel=127
key=b1
lovel=91
offset=2633
sample=Bass_staccatissimo_FF_B1_RR3.opus
</region>

<region>
hivel=127
key=b2
lovel=91
offset=1232
sample=Bass_staccatissimo_FF_B2_RR3.opus
</region>

<region>
hivel=127
key=b3
lovel=91
offset=1164
sample=Bass_staccatissimo_FF_B3_RR3.opus
</region>

<region>
hivel=127
key=c#2
lovel=91
offset=8622
sample=Bass_staccatissimo_FF_C#2_RR3.opus
</region>

<region>
hivel=127
key=c#3
lovel=91
offset=1368
sample=Bass_staccatissimo_FF_C#3_RR3.opus
</region>

<region>
hivel=127
key=c#4
lovel=91
offset=1524
sample=Bass_staccatissimo_FF_C#4_RR3.opus
</region>

<region>
hivel=127
key=c2
lovel=91
offset=6776
sample=Bass_staccatissimo_FF_C2_RR3.opus
</region>

<region>
hivel=127
key=c3
lovel=91
offset=1746
sample=Bass_staccatissimo_FF_C3_RR3.opus
</region>

<region>
hivel=127
key=c4
lovel=91
offset=1219
sample=Bass_staccatissimo_FF_C4_RR3.opus
</region>

<region>
hivel=127
key=d#2
lovel=91
offset=2110
sample=Bass_staccatissimo_FF_D#2_RR3.opus
</region>

<region>
hivel=127
key=d#3
lovel=91
offset=773
sample=Bass_staccatissimo_FF_D#3_RR3.opus
</region>

<region>
hivel=127
key=d#4
lovel=91
offset=2102
sample=Bass_staccatissimo_FF_D#4_RR3.opus
</region>

<region>
hivel=127
key=d2
lovel=91
offset=4362
sample=Bass_staccatissimo_FF_D2_RR3.opus
</region>

<region>
hivel=127
key=d3
lovel=91
offset=1687
sample=Bass_staccatissimo_FF_D3_RR3.opus
</region>

<region>
hivel=127
key=d4
lovel=91
offset=1704
sample=Bass_staccatissimo_FF_D4_RR3.opus
</region>

<region>
hivel=127
key=e2
lovel=91
offset=2406
sample=Bass_staccatissimo_FF_E2_RR3.opus
</region>

<region>
hivel=127
key=e3
lovel=91
offset=1152
sample=Bass_staccatissimo_FF_E3_RR3.opus
</region>

<region>
hivel=127
key=e4
lovel=91
offset=3218
sample=Bass_staccatissimo_FF_E4_RR3.opus
</region>

<region>
hivel=127
key=f#2
lovel=91
offset=1558
sample=Bass_staccatissimo_FF_F#2_RR3.opus
</region>

<region>
hivel=127
key=f#3
lovel=91
offset=1358
sample=Bass_staccatissimo_FF_F#3_RR3.opus
</region>

<region>
hivel=127
key=f#4
lovel=91
offset=2447
sample=Bass_staccatissimo_FF_F#4_RR3.opus
</region>

<region>
hivel=127
key=f2
lovel=91
offset=5025
sample=Bass_staccatissimo_FF_F2_RR3.opus
</region>

<region>
hivel=127
key=f3
lovel=91
offset=1140
sample=Bass_staccatissimo_FF_F3_RR3.opus
</region>

<region>
hivel=127
key=f4
lovel=91
offset=2975
sample=Bass_staccatissimo_FF_F4_RR3.opus
</region>

<region>
hivel=127
key=g#2
lovel=91
offset=2354
sample=Bass_staccatissimo_FF_G#2_RR3.opus
</region>

<region>
hivel=127
key=g#3
lovel=91
offset=1065
sample=Bass_staccatissimo_FF_G#3_RR3.opus
</region>

<region>
hivel=127
key=g#4
lovel=91
offset=2004
sample=Bass_staccatissimo_FF_G#4_RR3.opus
</region>

<region>
hivel=127
key=g2
lovel=91
offset=2995
sample=Bass_staccatissimo_FF_G2_RR3.opus
</region>

<region>
hivel=127
key=g3
lovel=91
offset=807
sample=Bass_staccatissimo_FF_G3_RR3.opus
</region>

<region>
hivel=127
key=g4
lovel=91
offset=2876
sample=Bass_staccatissimo_FF_G4_RR3.opus
</region>

<region>
hivel=90
key=a#1
lovel=46
offset=1299
sample=Bass_staccatissimo_MF_A#1_RR3.opus
</region>

<region>
hivel=90
key=a#2
lovel=46
offset=1640
sample=Bass_staccatissimo_MF_A#2_RR3.opus
</region>

<region>
hivel=90
key=a#3
lovel=46
offset=1352
sample=Bass_staccatissimo_MF_A#3_RR3.opus
</region>

<region>
hikey=G5
hivel=90
lokey=a#4
lovel=46
offset=1957
pitch_keycenter=a#4
sample=Bass_staccatissimo_MF_A#4_RR3.opus
</region>

<region>
hivel=90
key=a2
lovel=46
offset=2015
sample=Bass_staccatissimo_MF_A2_RR3.opus
</region>

<region>
hivel=90
key=a3
lovel=46
offset=1788
sample=Bass_staccatissimo_MF_A3_RR3.opus
</region>

<region>
hivel=90
key=a4
lovel=46
offset=2669
sample=Bass_staccatissimo_MF_A4_RR3.opus
</region>

<region>
hivel=90
key=b1
lovel=46
offset=5602
sample=Bass_staccatissimo_MF_B1_RR3.opus
</region>

<region>
hivel=90
key=b2
lovel=46
offset=749
sample=Bass_staccatissimo_MF_B2_RR3.opus
</region>

<region>
hivel=90
key=b3
lovel=46
offset=3984
sample=Bass_staccatissimo_MF_B3_RR3.opus
</region>

<region>
hivel=90
key=c#2
lovel=46
offset=5528
sample=Bass_staccatissimo_MF_C#2_RR3.opus
</region>

<region>
hivel=90
key=c#3
lovel=46
offset=922
sample=Bass_staccatissimo_MF_C#3_RR3.opus
</region>

<region>
hivel=90
key=c#4
lovel=46
offset=5368
sample=Bass_staccatissimo_MF_C#4_RR3.opus
</region>

<region>
hivel=90
key=c2
lovel=46
offset=3528
sample=Bass_staccatissimo_MF_C2_RR3.opus
</region>

<region>
hivel=90
key=c3
lovel=46
offset=1316
sample=Bass_staccatissimo_MF_C3_RR3.opus
</region>

<region>
hivel=90
key=c4
lovel=46
offset=4869
sample=Bass_staccatissimo_MF_C4_RR3.opus
</region>

<region>
hivel=90
key=d#2
lovel=46
offset=1382
sample=Bass_staccatissimo_MF_D#2_RR3.opus
</region>

<region>
hivel=90
key=d#3
lovel=46
offset=472
sample=Bass_staccatissimo_MF_D#3_RR3.opus
</region>

<region>
hivel=90
key=d#4
lovel=46
offset=1982
sample=Bass_staccatissimo_MF_D#4_RR3.opus
</region>

<region>
hivel=90
key=d2
lovel=46
offset=4100
sample=Bass_staccatissimo_MF_D2_RR3.opus
</region>

<region>
hivel=90
key=d3
lovel=46
offset=1218
sample=Bass_staccatissimo_MF_D3_RR3.opus
</region>

<region>
hivel=90
key=d4
lovel=46
offset=1211
sample=Bass_staccatissimo_MF_D4_RR3.opus
</region>

<region>
hivel=90
key=e2
lovel=46
offset=4182
sample=Bass_staccatissimo_MF_E2_RR3.opus
</region>

<region>
hivel=90
key=e3
lovel=46
offset=974
sample=Bass_staccatissimo_MF_E3_RR3.opus
</region>

<region>
hivel=90
key=e4
lovel=46
offset=2344
sample=Bass_staccatissimo_MF_E4_RR3.opus
</region>

<region>
hivel=90
key=f#2
lovel=46
offset=2110
sample=Bass_staccatissimo_MF_F#2_RR3.opus
</region>

<region>
hivel=90
key=f#3
lovel=46
offset=1326
sample=Bass_staccatissimo_MF_F#3_RR3.opus
</region>

<region>
hivel=90
key=f#4
lovel=46
offset=7042
sample=Bass_staccatissimo_MF_F#4_RR3.opus
</region>

<region>
hivel=90
key=f2
lovel=46
offset=4316
sample=Bass_staccatissimo_MF_F2_RR3.opus
</region>

<region>
hivel=90
key=f3
lovel=46
offset=630
sample=Bass_staccatissimo_MF_F3_RR3.opus
</region>

<region>
hivel=90
key=f4
lovel=46
offset=6467
sample=Bass_staccatissimo_MF_F4_RR3.opus
</region>

<region>
hivel=90
key=g#2
lovel=46
offset=2298
sample=Bass_staccatissimo_MF_G#2_RR3.opus
</region>

<region>
hivel=90
key=g#3
lovel=46
offset=680
sample=Bass_staccatissimo_MF_G#3_RR3.opus
</region>

<region>
hivel=90
key=g#4
lovel=46
offset=1725
sample=Bass_staccatissimo_MF_G#4_RR3.opus
</region>

<region>
hivel=90
key=g2
lovel=46
offset=7370
sample=Bass_staccatissimo_MF_G2_RR3.opus
</region>

<region>
hivel=90
key=g3
lovel=46
offset=1251
sample=Bass_staccatissimo_MF_G3_RR3.opus
</region>

<region>
hivel=90
key=g4
lovel=46
offset=2458
sample=Bass_staccatissimo_MF_G4_RR3.opus
</region>

<region>
hivel=45
key=a#1
lovel=0
sample=Bass_staccatissimo_PP_A#1_RR3.opus
</region>

<region>
hivel=45
key=a#2
lovel=0
offset=7570
sample=Bass_staccatissimo_PP_A#2_RR3.opus
</region>

<region>
hivel=45
key=a#3
lovel=0
sample=Bass_staccatissimo_PP_A#3_RR3.opus
</region>

<region>
hikey=G5
hivel=45
lokey=a#4
lovel=0
offset=351
pitch_keycenter=a#4
sample=Bass_staccatissimo_PP_A#4_RR3.opus
</region>

<region>
hivel=45
key=a2
lovel=0
offset=4059
sample=Bass_staccatissimo_PP_A2_RR3.opus
</region>

<region>
hivel=45
key=a3
lovel=0
sample=Bass_staccatissimo_PP_A3_RR3.opus
</region>

<region>
hivel=45
key=a4
lovel=0
offset=2785
sample=Bass_staccatissimo_PP_A4_RR3.opus
</region>

<region>
hivel=45
key=b1
lovel=0
offset=6501
sample=Bass_staccatissimo_PP_B1_RR3.opus
</region>

<region>
hivel=45
key=b2
lovel=0
offset=1913
sample=Bass_staccatissimo_PP_B2_RR3.opus
</region>

<region>
hivel=45
key=b3
lovel=0
offset=668
sample=Bass_staccatissimo_PP_B3_RR3.opus
</region>

<region>
hivel=45
key=c#2
lovel=0
offset=82
sample=Bass_staccatissimo_PP_C#2_RR3.opus
</region>

<region>
hivel=45
key=c#3
lovel=0
offset=222
sample=Bass_staccatissimo_PP_C#3_RR3.opus
</region>

<region>
hivel=45
key=c#4
lovel=0
offset=4924
sample=Bass_staccatissimo_PP_C#4_RR3.opus
</region>

<region>
hivel=45
key=c2
lovel=0
offset=1751
sample=Bass_staccatissimo_PP_C2_RR3.opus
</region>

<region>
hivel=45
key=c3
lovel=0
offset=1315
sample=Bass_staccatissimo_PP_C3_RR3.opus
</region>

<region>
hivel=45
key=c4
lovel=0
offset=5488
sample=Bass_staccatissimo_PP_C4_RR3.opus
</region>

<region>
hivel=45
key=d#2
lovel=0
offset=1361
sample=Bass_staccatissimo_PP_D#2_RR3.opus
</region>

<region>
hivel=45
key=d#3
lovel=0
offset=162
sample=Bass_staccatissimo_PP_D#3_RR3.opus
</region>

<region>
hivel=45
key=d#4
lovel=0
sample=Bass_staccatissimo_PP_D#4_RR3.opus
</region>

<region>
hivel=45
key=d2
lovel=0
offset=819
sample=Bass_staccatissimo_PP_D2_RR3.opus
</region>

<region>
hivel=45
key=d3
lovel=0
offset=1486
sample=Bass_staccatissimo_PP_D3_RR3.opus
</region>

<region>
hivel=45
key=d4
lovel=0
offset=3449
sample=Bass_staccatissimo_PP_D4_RR3.opus
</region>

<region>
hivel=45
key=e2
lovel=0
sample=Bass_staccatissimo_PP_E2_RR3.opus
</region>

<region>
hivel=45
key=e3
lovel=0
offset=1062
sample=Bass_staccatissimo_PP_E3_RR3.opus
</region>

<region>
hivel=45
key=e4
lovel=0
offset=4472
sample=Bass_staccatissimo_PP_E4_RR3.opus
</region>

<region>
hivel=45
key=f#2
lovel=0
offset=2063
sample=Bass_staccatissimo_PP_F#2_RR3.opus
</region>

<region>
hivel=45
key=f#3
lovel=0
offset=1092
sample=Bass_staccatissimo_PP_F#3_RR3.opus
</region>

<region>
hivel=45
key=f#4
lovel=0
offset=4730
sample=Bass_staccatissimo_PP_F#4_RR3.opus
</region>

<region>
hivel=45
key=f2
lovel=0
offset=6161
sample=Bass_staccatissimo_PP_F2_RR3.opus
</region>

<region>
hivel=45
key=f3
lovel=0
offset=375
sample=Bass_staccatissimo_PP_F3_RR3.opus
</region>

<region>
hivel=45
key=f4
lovel=0
offset=2772
sample=Bass_staccatissimo_PP_F4_RR3.opus
</region>

<region>
hivel=45
key=g#2
lovel=0
offset=1879
sample=Bass_staccatissimo_PP_G#2_RR3.opus
</region>

<region>
hivel=45
key=g#3
lovel=0
offset=2244
sample=Bass_staccatissimo_PP_G#3_RR3.opus
</region>

<region>
hivel=45
key=g#4
lovel=0
offset=1527
sample=Bass_staccatissimo_PP_G#4_RR3.opus
</region>

<region>
hivel=45
key=g2
lovel=0
offset=1004
sample=Bass_staccatissimo_PP_G2_RR3.opus
</region>

<region>
hivel=45
key=g3
lovel=0
offset=3188
sample=Bass_staccatissimo_PP_G3_RR3.opus
</region>

<region>
hivel=45
key=g4
lovel=0
offset=3380
sample=Bass_staccatissimo_PP_G4_RR3.opus
</region>
</group>

<group>
group_label=RR4
seq_length=8
seq_position=4

<region>
hivel=127
key=a#1
lovel=91
offset=1267
sample=Bass_staccatissimo_FF_A#1_RR4.opus
</region>

<region>
hivel=127
key=a#2
lovel=91
offset=827
sample=Bass_staccatissimo_FF_A#2_RR4.opus
</region>

<region>
hivel=127
key=a#3
lovel=91
offset=1635
sample=Bass_staccatissimo_FF_A#3_RR4.opus
</region>

<region>
hikey=G5
hivel=127
lokey=a#4
lovel=91
offset=1158
pitch_keycenter=a#4
sample=Bass_staccatissimo_FF_A#4_RR4.opus
</region>

<region>
hivel=127
key=a2
lovel=91
offset=1630
sample=Bass_staccatissimo_FF_A2_RR4.opus
</region>

<region>
hivel=127
key=a3
lovel=91
offset=2775
sample=Bass_staccatissimo_FF_A3_RR4.opus
</region>

<region>
hivel=127
key=a4
lovel=91
offset=1862
sample=Bass_staccatissimo_FF_A4_RR4.opus
</region>

<region>
hivel=127
key=b1
lovel=91
offset=2745
sample=Bass_staccatissimo_FF_B1_RR4.opus
</region>

<region>
hivel=127
key=b2
lovel=91
offset=4401
sample=Bass_staccatissimo_FF_B2_RR4.opus
</region>

<region>
hivel=127
key=b3
lovel=91
offset=1218
sample=Bass_staccatissimo_FF_B3_RR4.opus
</region>

<region>
hivel=127
key=c#2
lovel=91
offset=7421
sample=Bass_staccatissimo_FF_C#2_RR4.opus
</region>

<region>
hivel=127
key=c#3
lovel=91
offset=1193
sample=Bass_staccatissimo_FF_C#3_RR4.opus
</region>

<region>
hivel=127
key=c#4
lovel=91
offset=1390
sample=Bass_staccatissimo_FF_C#4_RR4.opus
</region>

<region>
hivel=127
key=c2
lovel=91
offset=6480
sample=Bass_staccatissimo_FF_C2_RR4.opus
</region>

<region>
hivel=127
key=c3
lovel=91
offset=1174
sample=Bass_staccatissimo_FF_C3_RR4.opus
</region>

<region>
hivel=127
key=c4
lovel=91
offset=1716
sample=Bass_staccatissimo_FF_C4_RR4.opus
</region>

<region>
hivel=127
key=d#2
lovel=91
offset=1985
sample=Bass_staccatissimo_FF_D#2_RR4.opus
</region>

<region>
hivel=127
key=d#3
lovel=91
offset=768
sample=Bass_staccatissimo_FF_D#3_RR4.opus
</region>

<region>
hivel=127
key=d#4
lovel=91
offset=1304
sample=Bass_staccatissimo_FF_D#4_RR4.opus
</region>

<region>
hivel=127
key=d2
lovel=91
offset=3565
sample=Bass_staccatissimo_FF_D2_RR4.opus
</region>

<region>
hivel=127
key=d3
lovel=91
offset=1208
sample=Bass_staccatissimo_FF_D3_RR4.opus
</region>

<region>
hivel=127
key=d4
lovel=91
offset=1224
sample=Bass_staccatissimo_FF_D4_RR4.opus
</region>

<region>
hivel=127
key=e2
lovel=91
offset=3453
sample=Bass_staccatissimo_FF_E2_RR4.opus
</region>

<region>
hivel=127
key=e3
lovel=91
offset=709
sample=Bass_staccatissimo_FF_E3_RR4.opus
</region>

<region>
hivel=127
key=e4
lovel=91
offset=1305
sample=Bass_staccatissimo_FF_E4_RR4.opus
</region>

<region>
hivel=127
key=f#2
lovel=91
offset=1185
sample=Bass_staccatissimo_FF_F#2_RR4.opus
</region>

<region>
hivel=127
key=f#3
lovel=91
offset=1897
sample=Bass_staccatissimo_FF_F#3_RR4.opus
</region>

<region>
hivel=127
key=f#4
lovel=91
offset=3705
sample=Bass_staccatissimo_FF_F#4_RR4.opus
</region>

<region>
hivel=127
key=f2
lovel=91
offset=1122
sample=Bass_staccatissimo_FF_F2_RR4.opus
</region>

<region>
hivel=127
key=f3
lovel=91
offset=605
sample=Bass_staccatissimo_FF_F3_RR4.opus
</region>

<region>
hivel=127
key=f4
lovel=91
offset=6213
sample=Bass_staccatissimo_FF_F4_RR4.opus
</region>

<region>
hivel=127
key=g#2
lovel=91
offset=1400
sample=Bass_staccatissimo_FF_G#2_RR4.opus
</region>

<region>
hivel=127
key=g#3
lovel=91
offset=944
sample=Bass_staccatissimo_FF_G#3_RR4.opus
</region>

<region>
hivel=127
key=g#4
lovel=91
offset=2374
sample=Bass_staccatissimo_FF_G#4_RR4.opus
</region>

<region>
hivel=127
key=g2
lovel=91
offset=1866
sample=Bass_staccatissimo_FF_G2_RR4.opus
</region>

<region>
hivel=127
key=g3
lovel=91
offset=816
sample=Bass_staccatissimo_FF_G3_RR4.opus
</region>

<region>
hivel=127
key=g4
lovel=91
offset=3249
sample=Bass_staccatissimo_FF_G4_RR4.opus
</region>

<region>
hivel=90
key=a#1
lovel=46
offset=6248
sample=Bass_staccatissimo_MF_A#1_RR4.opus
</region>

<region>
hivel=90
key=a#2
lovel=46
offset=1228
sample=Bass_staccatissimo_MF_A#2_RR4.opus
</region>

<region>
hivel=90
key=a#3
lovel=46
offset=436
sample=Bass_staccatissimo_MF_A#3_RR4.opus
</region>

<region>
hikey=G5
hivel=90
lokey=a#4
lovel=46
offset=2334
pitch_keycenter=a#4
sample=Bass_staccatissimo_MF_A#4_RR4.opus
</region>

<region>
hivel=90
key=a2
lovel=46
offset=2745
sample=Bass_staccatissimo_MF_A2_RR4.opus
</region>

<region>
hivel=90
key=a3
lovel=46
offset=1931
sample=Bass_staccatissimo_MF_A3_RR4.opus
</region>

<region>
hivel=90
key=a4
lovel=46
offset=2392
sample=Bass_staccatissimo_MF_A4_RR4.opus
</region>

<region>
hivel=90
key=b1
lovel=46
offset=4163
sample=Bass_staccatissimo_MF_B1_RR4.opus
</region>

<region>
hivel=90
key=b2
lovel=46
offset=1128
sample=Bass_staccatissimo_MF_B2_RR4.opus
</region>

<region>
hivel=90
key=b3
lovel=46
offset=494
sample=Bass_staccatissimo_MF_B3_RR4.opus
</region>

<region>
hivel=90
key=c#2
lovel=46
offset=3974
sample=Bass_staccatissimo_MF_C#2_RR4.opus
</region>

<region>
hivel=90
key=c#3
lovel=46
offset=984
sample=Bass_staccatissimo_MF_C#3_RR4.opus
</region>

<region>
hivel=90
key=c#4
lovel=46
offset=4790
sample=Bass_staccatissimo_MF_C#4_RR4.opus
</region>

<region>
hivel=90
key=c2
lovel=46
offset=6113
sample=Bass_staccatissimo_MF_C2_RR4.opus
</region>

<region>
hivel=90
key=c3
lovel=46
offset=983
sample=Bass_staccatissimo_MF_C3_RR4.opus
</region>

<region>
hivel=90
key=c4
lovel=46
offset=6752
sample=Bass_staccatissimo_MF_C4_RR4.opus
</region>

<region>
hivel=90
key=d#2
lovel=46
offset=3790
sample=Bass_staccatissimo_MF_D#2_RR4.opus
</region>

<region>
hivel=90
key=d#3
lovel=46
offset=1534
sample=Bass_staccatissimo_MF_D#3_RR4.opus
</region>

<region>
hivel=90
key=d#4
lovel=46
offset=1362
sample=Bass_staccatissimo_MF_D#4_RR4.opus
</region>

<region>
hivel=90
key=d2
lovel=46
offset=4055
sample=Bass_staccatissimo_MF_D2_RR4.opus
</region>

<region>
hivel=90
key=d3
lovel=46
offset=902
sample=Bass_staccatissimo_MF_D3_RR4.opus
</region>

<region>
hivel=90
key=d4
lovel=46
offset=1062
sample=Bass_staccatissimo_MF_D4_RR4.opus
</region>

<region>
hivel=90
key=e2
lovel=46
offset=3701
sample=Bass_staccatissimo_MF_E2_RR4.opus
</region>

<region>
hivel=90
key=e3
lovel=46
offset=989
sample=Bass_staccatissimo_MF_E3_RR4.opus
</region>

<region>
hivel=90
key=e4
lovel=46
offset=2386
sample=Bass_staccatissimo_MF_E4_RR4.opus
</region>

<region>
hivel=90
key=f#2
lovel=46
offset=4396
sample=Bass_staccatissimo_MF_F#2_RR4.opus
</region>

<region>
hivel=90
key=f#3
lovel=46
offset=585
sample=Bass_staccatissimo_MF_F#3_RR4.opus
</region>

<region>
hivel=90
key=f#4
lovel=46
offset=6277
sample=Bass_staccatissimo_MF_F#4_RR4.opus
</region>

<region>
hivel=90
key=f2
lovel=46
offset=1185
sample=Bass_staccatissimo_MF_F2_RR4.opus
</region>

<region>
hivel=90
key=f3
lovel=46
offset=879
sample=Bass_staccatissimo_MF_F3_RR4.opus
</region>

<region>
hivel=90
key=f4
lovel=46
offset=7440
sample=Bass_staccatissimo_MF_F4_RR4.opus
</region>

<region>
hivel=90
key=g#2
lovel=46
offset=3857
sample=Bass_staccatissimo_MF_G#2_RR4.opus
</region>

<region>
hivel=90
key=g#3
lovel=46
offset=700
sample=Bass_staccatissimo_MF_G#3_RR4.opus
</region>

<region>
hivel=90
key=g#4
lovel=46
offset=1518
sample=Bass_staccatissimo_MF_G#4_RR4.opus
</region>

<region>
hivel=90
key=g2
lovel=46
offset=8396
sample=Bass_staccatissimo_MF_G2_RR4.opus
</region>

<region>
hivel=90
key=g3
lovel=46
offset=1233
sample=Bass_staccatissimo_MF_G3_RR4.opus
</region>

<region>
hivel=90
key=g4
lovel=46
offset=3423
sample=Bass_staccatissimo_MF_G4_RR4.opus
</region>

<region>
hivel=45
key=a#1
lovel=0
sample=Bass_staccatissimo_PP_A#1_RR4.opus
</region>

<region>
hivel=45
key=a#2
lovel=0
sample=Bass_staccatissimo_PP_A#2_RR4.opus
</region>

<region>
hivel=45
key=a#3
lovel=0
sample=Bass_staccatissimo_PP_A#3_RR4.opus
</region>

<region>
hikey=G5
hivel=45
lokey=a#4
lovel=0
offset=883
pitch_keycenter=a#4
sample=Bass_staccatissimo_PP_A#4_RR4.opus
</region>

<region>
hivel=45
key=a2
lovel=0
offset=4259
sample=Bass_staccatissimo_PP_A2_RR4.opus
</region>

<region>
hivel=45
key=a3
lovel=0
offset=538
sample=Bass_staccatissimo_PP_A3_RR4.opus
</region>

<region>
hivel=45
key=a4
lovel=0
offset=2693
sample=Bass_staccatissimo_PP_A4_RR4.opus
</region>

<region>
hivel=45
key=b1
lovel=0
offset=4730
sample=Bass_staccatissimo_PP_B1_RR4.opus
</region>

<region>
hivel=45
key=b2
lovel=0
offset=1027
sample=Bass_staccatissimo_PP_B2_RR4.opus
</region>

<region>
hivel=45
key=b3
lovel=0
sample=Bass_staccatissimo_PP_B3_RR4.opus
</region>

<region>
hivel=45
key=c#2
lovel=0
offset=61
sample=Bass_staccatissimo_PP_C#2_RR4.opus
</region>

<region>
hivel=45
key=c#3
lovel=0
offset=2769
sample=Bass_staccatissimo_PP_C#3_RR4.opus
</region>

<region>
hivel=45
key=c#4
lovel=0
offset=7029
sample=Bass_staccatissimo_PP_C#4_RR4.opus
</region>

<region>
hivel=45
key=c2
lovel=0
offset=1592
sample=Bass_staccatissimo_PP_C2_RR4.opus
</region>

<region>
hivel=45
key=c3
lovel=0
offset=972
sample=Bass_staccatissimo_PP_C3_RR4.opus
</region>

<region>
hivel=45
key=c4
lovel=0
offset=5186
sample=Bass_staccatissimo_PP_C4_RR4.opus
</region>

<region>
hivel=45
key=d#2
lovel=0
offset=782
sample=Bass_staccatissimo_PP_D#2_RR4.opus
</region>

<region>
hivel=45
key=d#3
lovel=0
offset=1359
sample=Bass_staccatissimo_PP_D#3_RR4.opus
</region>

<region>
hivel=45
key=d#4
lovel=0
offset=3597
sample=Bass_staccatissimo_PP_D#4_RR4.opus
</region>

<region>
hivel=45
key=d2
lovel=0
offset=420
sample=Bass_staccatissimo_PP_D2_RR4.opus
</region>

<region>
hivel=45
key=d3
lovel=0
offset=1839
sample=Bass_staccatissimo_PP_D3_RR4.opus
</region>

<region>
hivel=45
key=d4
lovel=0
offset=6378
sample=Bass_staccatissimo_PP_D4_RR4.opus
</region>

<region>
hivel=45
key=e2
lovel=0
offset=4120
sample=Bass_staccatissimo_PP_E2_RR4.opus
</region>

<region>
hivel=45
key=e3
lovel=0
offset=1210
sample=Bass_staccatissimo_PP_E3_RR4.opus
</region>

<region>
hivel=45
key=e4
lovel=0
offset=4522
sample=Bass_staccatissimo_PP_E4_RR4.opus
</region>

<region>
hivel=45
key=f#2
lovel=0
offset=3125
sample=Bass_staccatissimo_PP_F#2_RR4.opus
</region>

<region>
hivel=45
key=f#3
lovel=0
offset=3668
sample=Bass_staccatissimo_PP_F#3_RR4.opus
</region>

<region>
hivel=45
key=f#4
lovel=0
offset=5671
sample=Bass_staccatissimo_PP_F#4_RR4.opus
</region>

<region>
hivel=45
key=f2
lovel=0
offset=646
sample=Bass_staccatissimo_PP_F2_RR4.opus
</region>

<region>
hivel=45
key=f3
lovel=0
offset=6174
sample=Bass_staccatissimo_PP_F3_RR4.opus
</region>

<region>
hivel=45
key=f4
lovel=0
offset=1590
sample=Bass_staccatissimo_PP_F4_RR4.opus
</region>

<region>
hivel=45
key=g#2
lovel=0
offset=3712
sample=Bass_staccatissimo_PP_G#2_RR4.opus
</region>

<region>
hivel=45
key=g#3
lovel=0
offset=2511
sample=Bass_staccatissimo_PP_G#3_RR4.opus
</region>

<region>
hivel=45
key=g#4
lovel=0
offset=2093
sample=Bass_staccatissimo_PP_G#4_RR4.opus
</region>

<region>
hivel=45
key=g2
lovel=0
offset=1016
sample=Bass_staccatissimo_PP_G2_RR4.opus
</region>

<region>
hivel=45
key=g3
lovel=0
offset=4775
sample=Bass_staccatissimo_PP_G3_RR4.opus
</region>

<region>
hivel=45
key=g4
lovel=0
offset=3399
sample=Bass_staccatissimo_PP_G4_RR4.opus
</region>
</group>

<group>
group_label=RR5
seq_length=8
seq_position=5

<region>
hivel=127
key=a#1
lovel=91
offset=2104
sample=Bass_staccatissimo_FF_A#1_RR5.opus
</region>

<region>
hivel=127
key=a#2
lovel=91
offset=1903
sample=Bass_staccatissimo_FF_A#2_RR5.opus
</region>

<region>
hivel=127
key=a#3
lovel=91
offset=1010
sample=Bass_staccatissimo_FF_A#3_RR5.opus
</region>

<region>
hikey=G5
hivel=127
lokey=a#4
lovel=91
offset=1880
pitch_keycenter=a#4
sample=Bass_staccatissimo_FF_A#4_RR5.opus
</region>

<region>
hivel=127
key=a2
lovel=91
offset=1238
sample=Bass_staccatissimo_FF_A2_RR5.opus
</region>

<region>
hivel=127
key=a3
lovel=91
offset=1784
sample=Bass_staccatissimo_FF_A3_RR5.opus
</region>

<region>
hivel=127
key=a4
lovel=91
offset=1724
sample=Bass_staccatissimo_FF_A4_RR5.opus
</region>

<region>
hivel=127
key=b1
lovel=91
offset=2229
sample=Bass_staccatissimo_FF_B1_RR5.opus
</region>

<region>
hivel=127
key=b2
lovel=91
offset=1035
sample=Bass_staccatissimo_FF_B2_RR5.opus
</region>

<region>
hivel=127
key=b3
lovel=91
offset=998
sample=Bass_staccatissimo_FF_B3_RR5.opus
</region>

<region>
hivel=127
key=c#2
lovel=91
offset=2876
sample=Bass_staccatissimo_FF_C#2_RR5.opus
</region>

<region>
hivel=127
key=c#3
lovel=91
offset=1048
sample=Bass_staccatissimo_FF_C#3_RR5.opus
</region>

<region>
hivel=127
key=c#4
lovel=91
offset=1501
sample=Bass_staccatissimo_FF_C#4_RR5.opus
</region>

<region>
hivel=127
key=c2
lovel=91
offset=5140
sample=Bass_staccatissimo_FF_C2_RR5.opus
</region>

<region>
hivel=127
key=c3
lovel=91
offset=2389
sample=Bass_staccatissimo_FF_C3_RR5.opus
</region>

<region>
hivel=127
key=c4
lovel=91
offset=1451
sample=Bass_staccatissimo_FF_C4_RR5.opus
</region>

<region>
hivel=127
key=d#2
lovel=91
offset=2992
sample=Bass_staccatissimo_FF_D#2_RR5.opus
</region>

<region>
hivel=127
key=d#3
lovel=91
offset=1101
sample=Bass_staccatissimo_FF_D#3_RR5.opus
</region>

<region>
hivel=127
key=d#4
lovel=91
offset=1614
sample=Bass_staccatissimo_FF_D#4_RR5.opus
</region>

<region>
hivel=127
key=d2
lovel=91
offset=3309
sample=Bass_staccatissimo_FF_D2_RR5.opus
</region>

<region>
hivel=127
key=d3
lovel=91
offset=947
sample=Bass_staccatissimo_FF_D3_RR5.opus
</region>

<region>
hivel=127
key=d4
lovel=91
offset=8389
sample=Bass_staccatissimo_FF_D4_RR5.opus
</region>

<region>
hivel=127
key=e2
lovel=91
offset=1291
sample=Bass_staccatissimo_FF_E2_RR5.opus
</region>

<region>
hivel=127
key=e3
lovel=91
offset=752
sample=Bass_staccatissimo_FF_E3_RR5.opus
</region>

<region>
hivel=127
key=e4
lovel=91
offset=1830
sample=Bass_staccatissimo_FF_E4_RR5.opus
</region>

<region>
hivel=127
key=f#2
lovel=91
offset=6237
sample=Bass_staccatissimo_FF_F#2_RR5.opus
</region>

<region>
hivel=127
key=f#3
lovel=91
offset=1694
sample=Bass_staccatissimo_FF_F#3_RR5.opus
</region>

<region>
hivel=127
key=f#4
lovel=91
offset=2847
sample=Bass_staccatissimo_FF_F#4_RR5.opus
</region>

<region>
hivel=127
key=f2
lovel=91
offset=3405
sample=Bass_staccatissimo_FF_F2_RR5.opus
</region>

<region>
hivel=127
key=f3
lovel=91
offset=868
sample=Bass_staccatissimo_FF_F3_RR5.opus
</region>

<region>
hivel=127
key=f4
lovel=91
offset=2740
sample=Bass_staccatissimo_FF_F4_RR5.opus
</region>

<region>
hivel=127
key=g#2
lovel=91
offset=4675
sample=Bass_staccatissimo_FF_G#2_RR5.opus
</region>

<region>
hivel=127
key=g#3
lovel=91
offset=958
sample=Bass_staccatissimo_FF_G#3_RR5.opus
</region>

<region>
hivel=127
key=g#4
lovel=91
offset=1228
sample=Bass_staccatissimo_FF_G#4_RR5.opus
</region>

<region>
hivel=127
key=g2
lovel=91
offset=1620
sample=Bass_staccatissimo_FF_G2_RR5.opus
</region>

<region>
hivel=127
key=g3
lovel=91
offset=1496
sample=Bass_staccatissimo_FF_G3_RR5.opus
</region>

<region>
hivel=127
key=g4
lovel=91
offset=6169
sample=Bass_staccatissimo_FF_G4_RR5.opus
</region>

<region>
hivel=90
key=a#1
lovel=46
offset=1949
sample=Bass_staccatissimo_MF_A#1_RR5.opus
</region>

<region>
hivel=90
key=a#2
lovel=46
offset=1625
sample=Bass_staccatissimo_MF_A#2_RR5.opus
</region>

<region>
hivel=90
key=a#3
lovel=46
offset=2498
sample=Bass_staccatissimo_MF_A#3_RR5.opus
</region>

<region>
hikey=G5
hivel=90
lokey=a#4
lovel=46
offset=2932
pitch_keycenter=a#4
sample=Bass_staccatissimo_MF_A#4_RR5.opus
</region>

<region>
hivel=90
key=a2
lovel=46
offset=1808
sample=Bass_staccatissimo_MF_A2_RR5.opus
</region>

<region>
hivel=90
key=a3
lovel=46
offset=1354
sample=Bass_staccatissimo_MF_A3_RR5.opus
</region>

<region>
hivel=90
key=a4
lovel=46
offset=2877
sample=Bass_staccatissimo_MF_A4_RR5.opus
</region>

<region>
hivel=90
key=b1
lovel=46
offset=4702
sample=Bass_staccatissimo_MF_B1_RR5.opus
</region>

<region>
hivel=90
key=b2
lovel=46
offset=1034
sample=Bass_staccatissimo_MF_B2_RR5.opus
</region>

<region>
hivel=90
key=b3
lovel=46
offset=5908
sample=Bass_staccatissimo_MF_B3_RR5.opus
</region>

<region>
hivel=90
key=c#2
lovel=46
offset=4065
sample=Bass_staccatissimo_MF_C#2_RR5.opus
</region>

<region>
hivel=90
key=c#3
lovel=46
offset=1190
sample=Bass_staccatissimo_MF_C#3_RR5.opus
</region>

<region>
hivel=90
key=c#4
lovel=46
offset=6046
sample=Bass_staccatissimo_MF_C#4_RR5.opus
</region>

<region>
hivel=90
key=c2
lovel=46
offset=5772
sample=Bass_staccatissimo_MF_C2_RR5.opus
</region>

<region>
hivel=90
key=c3
lovel=46
offset=1317
sample=Bass_staccatissimo_MF_C3_RR5.opus
</region>

<region>
hivel=90
key=c4
lovel=46
offset=5047
sample=Bass_staccatissimo_MF_C4_RR5.opus
</region>

<region>
hivel=90
key=d#2
lovel=46
offset=7130
sample=Bass_staccatissimo_MF_D#2_RR5.opus
</region>

<region>
hivel=90
key=d#3
lovel=46
offset=1359
sample=Bass_staccatissimo_MF_D#3_RR5.opus
</region>

<region>
hivel=90
key=d#4
lovel=46
offset=1197
sample=Bass_staccatissimo_MF_D#4_RR5.opus
</region>

<region>
hivel=90
key=d2
lovel=46
offset=1458
sample=Bass_staccatissimo_MF_D2_RR5.opus
</region>

<region>
hivel=90
key=d3
lovel=46
offset=1490
sample=Bass_staccatissimo_MF_D3_RR5.opus
</region>

<region>
hivel=90
key=d4
lovel=46
offset=1199
sample=Bass_staccatissimo_MF_D4_RR5.opus
</region>

<region>
hivel=90
key=e2
lovel=46
offset=4202
sample=Bass_staccatissimo_MF_E2_RR5.opus
</region>

<region>
hivel=90
key=e3
lovel=46
offset=691
sample=Bass_staccatissimo_MF_E3_RR5.opus
</region>

<region>
hivel=90
key=e4
lovel=46
offset=2489
sample=Bass_staccatissimo_MF_E4_RR5.opus
</region>

<region>
hivel=90
key=f#2
lovel=46
offset=2680
sample=Bass_staccatissimo_MF_F#2_RR5.opus
</region>

<region>
hivel=90
key=f#3
lovel=46
offset=871
sample=Bass_staccatissimo_MF_F#3_RR5.opus
</region>

<region>
hivel=90
key=f#4
lovel=46
offset=6003
sample=Bass_staccatissimo_MF_F#4_RR5.opus
</region>

<region>
hivel=90
key=f2
lovel=46
offset=3320
sample=Bass_staccatissimo_MF_F2_RR5.opus
</region>

<region>
hivel=90
key=f3
lovel=46
offset=1745
sample=Bass_staccatissimo_MF_F3_RR5.opus
</region>

<region>
hivel=90
key=f4
lovel=46
offset=6606
sample=Bass_staccatissimo_MF_F4_RR5.opus
</region>

<region>
hivel=90
key=g#2
lovel=46
offset=3177
sample=Bass_staccatissimo_MF_G#2_RR5.opus
</region>

<region>
hivel=90
key=g#3
lovel=46
offset=676
sample=Bass_staccatissimo_MF_G#3_RR5.opus
</region>

<region>
hivel=90
key=g#4
lovel=46
offset=2358
sample=Bass_staccatissimo_MF_G#4_RR5.opus
</region>

<region>
hivel=90
key=g2
lovel=46
offset=7875
sample=Bass_staccatissimo_MF_G2_RR5.opus
</region>

<region>
hivel=90
key=g3
lovel=46
offset=1229
sample=Bass_staccatissimo_MF_G3_RR5.opus
</region>

<region>
hivel=90
key=g4
lovel=46
offset=2776
sample=Bass_staccatissimo_MF_G4_RR5.opus
</region>

<region>
hivel=45
key=a#1
lovel=0
offset=1753
sample=Bass_staccatissimo_PP_A#1_RR5.opus
</region>

<region>
hivel=45
key=a#2
lovel=0
sample=Bass_staccatissimo_PP_A#2_RR5.opus
</region>

<region>
hivel=45
key=a#3
lovel=0
sample=Bass_staccatissimo_PP_A#3_RR5.opus
</region>

<region>
hikey=G5
hivel=45
lokey=a#4
lovel=0
offset=890
pitch_keycenter=a#4
sample=Bass_staccatissimo_PP_A#4_RR5.opus
</region>

<region>
hivel=45
key=a2
lovel=0
offset=2897
sample=Bass_staccatissimo_PP_A2_RR5.opus
</region>

<region>
hivel=45
key=a4
lovel=0
offset=3106
sample=Bass_staccatissimo_PP_A4_RR5.opus
</region>

<region>
hivel=45
key=b1
lovel=0
sample=Bass_staccatissimo_PP_B1_RR5.opus
</region>

<region>
hivel=45
key=b2
lovel=0
offset=280
sample=Bass_staccatissimo_PP_B2_RR5.opus
</region>

<region>
hivel=45
key=b3
lovel=0
offset=6826
sample=Bass_staccatissimo_PP_B3_RR5.opus
</region>

<region>
hivel=45
key=c#2
lovel=0
offset=209
sample=Bass_staccatissimo_PP_C#2_RR5.opus
</region>

<region>
hivel=45
key=c#3
lovel=0
offset=1579
sample=Bass_staccatissimo_PP_C#3_RR5.opus
</region>

<region>
hivel=45
key=c#4
lovel=0
offset=6214
sample=Bass_staccatissimo_PP_C#4_RR5.opus
</region>

<region>
hivel=45
key=c2
lovel=0
sample=Bass_staccatissimo_PP_C2_RR5.opus
</region>

<region>
hivel=45
key=c4
lovel=0
offset=6816
sample=Bass_staccatissimo_PP_C4_RR5.opus
</region>

<region>
hivel=45
key=d#2
lovel=0
offset=758
sample=Bass_staccatissimo_PP_D#2_RR5.opus
</region>

<region>
hivel=45
key=d#3
lovel=0
offset=1843
sample=Bass_staccatissimo_PP_D#3_RR5.opus
</region>

<region>
hivel=45
key=d#4
lovel=0
sample=Bass_staccatissimo_PP_D#4_RR5.opus
</region>

<region>
hivel=45
key=d2
lovel=0
offset=5281
sample=Bass_staccatissimo_PP_D2_RR5.opus
</region>

<region>
hivel=45
key=d3
lovel=0
offset=2117
sample=Bass_staccatissimo_PP_D3_RR5.opus
</region>

<region>
hivel=45
key=d4
lovel=0
offset=1543
sample=Bass_staccatissimo_PP_D4_RR5.opus
</region>

<region>
hivel=45
key=e2
lovel=0
offset=5649
sample=Bass_staccatissimo_PP_E2_RR5.opus
</region>

<region>
hivel=45
key=e3
lovel=0
offset=1576
sample=Bass_staccatissimo_PP_E3_RR5.opus
</region>

<region>
hivel=45
key=e4
lovel=0
offset=4129
sample=Bass_staccatissimo_PP_E4_RR5.opus
</region>

<region>
hivel=45
key=f#2
lovel=0
offset=1728
sample=Bass_staccatissimo_PP_F#2_RR5.opus
</region>

<region>
hivel=45
key=f#3
lovel=0
offset=1891
sample=Bass_staccatissimo_PP_F#3_RR5.opus
</region>

<region>
hivel=45
key=f#4
lovel=0
offset=1918
sample=Bass_staccatissimo_PP_F#4_RR5.opus
</region>

<region>
hivel=45
key=f2
lovel=0
sample=Bass_staccatissimo_PP_F2_RR5.opus
</region>

<region>
hivel=45
key=f3
lovel=0
offset=2071
sample=Bass_staccatissimo_PP_F3_RR5.opus
</region>

<region>
hivel=45
key=f4
lovel=0
offset=5121
sample=Bass_staccatissimo_PP_F4_RR5.opus
</region>

<region>
hivel=45
key=g#2
lovel=0
offset=7301
sample=Bass_staccatissimo_PP_G#2_RR5.opus
</region>

<region>
hivel=45
key=g#3
lovel=0
offset=4137
sample=Bass_staccatissimo_PP_G#3_RR5.opus
</region>

<region>
hivel=45
key=g#4
lovel=0
offset=3177
sample=Bass_staccatissimo_PP_G#4_RR5.opus
</region>

<region>
hivel=45
key=g2
lovel=0
offset=7429
sample=Bass_staccatissimo_PP_G2_RR5.opus
</region>

<region>
hivel=45
key=g3
lovel=0
offset=2711
sample=Bass_staccatissimo_PP_G3_RR5.opus
</region>

<region>
hivel=45
key=g4
lovel=0
offset=3277
sample=Bass_staccatissimo_PP_G4_RR5.opus
</region>
</group>

<group>
group_label=RR6
seq_length=8
seq_position=6

<region>
hivel=127
key=a#1
lovel=91
offset=1327
sample=Bass_staccatissimo_FF_A#1_RR6.opus
</region>

<region>
hivel=127
key=a#2
lovel=91
offset=2124
sample=Bass_staccatissimo_FF_A#2_RR6.opus
</region>

<region>
hivel=127
key=a#3
lovel=91
offset=1272
sample=Bass_staccatissimo_FF_A#3_RR6.opus
</region>

<region>
hikey=G5
hivel=127
lokey=a#4
lovel=91
offset=1403
pitch_keycenter=a#4
sample=Bass_staccatissimo_FF_A#4_RR6.opus
</region>

<region>
hivel=127
key=a2
lovel=91
offset=1901
sample=Bass_staccatissimo_FF_A2_RR6.opus
</region>

<region>
hivel=127
key=a3
lovel=91
offset=2044
sample=Bass_staccatissimo_FF_A3_RR6.opus
</region>

<region>
hivel=127
key=a4
lovel=91
offset=1498
sample=Bass_staccatissimo_FF_A4_RR6.opus
</region>

<region>
hivel=127
key=b1
lovel=91
offset=4122
sample=Bass_staccatissimo_FF_B1_RR6.opus
</region>

<region>
hivel=127
key=b2
lovel=91
offset=1316
sample=Bass_staccatissimo_FF_B2_RR6.opus
</region>

<region>
hivel=127
key=b3
lovel=91
offset=1243
sample=Bass_staccatissimo_FF_B3_RR6.opus
</region>

<region>
hivel=127
key=c#2
lovel=91
offset=3930
sample=Bass_staccatissimo_FF_C#2_RR6.opus
</region>

<region>
hivel=127
key=c#3
lovel=91
offset=1105
sample=Bass_staccatissimo_FF_C#3_RR6.opus
</region>

<region>
hivel=127
key=c#4
lovel=91
offset=1498
sample=Bass_staccatissimo_FF_C#4_RR6.opus
</region>

<region>
hivel=127
key=c2
lovel=91
offset=6038
sample=Bass_staccatissimo_FF_C2_RR6.opus
</region>

<region>
hivel=127
key=c3
lovel=91
offset=1522
sample=Bass_staccatissimo_FF_C3_RR6.opus
</region>

<region>
hivel=127
key=c4
lovel=91
offset=1388
sample=Bass_staccatissimo_FF_C4_RR6.opus
</region>

<region>
hivel=127
key=d#2
lovel=91
offset=1421
sample=Bass_staccatissimo_FF_D#2_RR6.opus
</region>

<region>
hivel=127
key=d#3
lovel=91
offset=814
sample=Bass_staccatissimo_FF_D#3_RR6.opus
</region>

<region>
hivel=127
key=d#4
lovel=91
offset=9411
sample=Bass_staccatissimo_FF_D#4_RR6.opus
</region>

<region>
hivel=127
key=d2
lovel=91
offset=4375
sample=Bass_staccatissimo_FF_D2_RR6.opus
</region>

<region>
hivel=127
key=d3
lovel=91
offset=1947
sample=Bass_staccatissimo_FF_D3_RR6.opus
</region>

<region>
hivel=127
key=d4
lovel=91
offset=1569
sample=Bass_staccatissimo_FF_D4_RR6.opus
</region>

<region>
hivel=127
key=e2
lovel=91
offset=1308
sample=Bass_staccatissimo_FF_E2_RR6.opus
</region>

<region>
hivel=127
key=e3
lovel=91
offset=760
sample=Bass_staccatissimo_FF_E3_RR6.opus
</region>

<region>
hivel=127
key=e4
lovel=91
offset=1448
sample=Bass_staccatissimo_FF_E4_RR6.opus
</region>

<region>
hivel=127
key=f#2
lovel=91
offset=2667
sample=Bass_staccatissimo_FF_F#2_RR6.opus
</region>

<region>
hivel=127
key=f#3
lovel=91
offset=1621
sample=Bass_staccatissimo_FF_F#3_RR6.opus
</region>

<region>
hivel=127
key=f#4
lovel=91
offset=2464
sample=Bass_staccatissimo_FF_F#4_RR6.opus
</region>

<region>
hivel=127
key=f2
lovel=91
offset=1203
sample=Bass_staccatissimo_FF_F2_RR6.opus
</region>

<region>
hivel=127
key=f3
lovel=91
offset=942
sample=Bass_staccatissimo_FF_F3_RR6.opus
</region>

<region>
hivel=127
key=f4
lovel=91
offset=3214
sample=Bass_staccatissimo_FF_F4_RR6.opus
</region>

<region>
hivel=127
key=g#2
lovel=91
offset=2390
sample=Bass_staccatissimo_FF_G#2_RR6.opus
</region>

<region>
hivel=127
key=g#3
lovel=91
offset=1063
sample=Bass_staccatissimo_FF_G#3_RR6.opus
</region>

<region>
hivel=127
key=g#4
lovel=91
offset=2410
sample=Bass_staccatissimo_FF_G#4_RR6.opus
</region>

<region>
hivel=127
key=g2
lovel=91
offset=2083
sample=Bass_staccatissimo_FF_G2_RR6.opus
</region>

<region>
hivel=127
key=g3
lovel=91
offset=816
sample=Bass_staccatissimo_FF_G3_RR6.opus
</region>

<region>
hivel=127
key=g4
lovel=91
offset=2962
sample=Bass_staccatissimo_FF_G4_RR6.opus
</region>

<region>
hivel=90
key=a#1
lovel=46
offset=1340
sample=Bass_staccatissimo_MF_A#1_RR6.opus
</region>

<region>
hivel=90
key=a#2
lovel=46
offset=2037
sample=Bass_staccatissimo_MF_A#2_RR6.opus
</region>

<region>
hivel=90
key=a#3
lovel=46
offset=948
sample=Bass_staccatissimo_MF_A#3_RR6.opus
</region>

<region>
hikey=G5
hivel=90
lokey=a#4
lovel=46
offset=1523
pitch_keycenter=a#4
sample=Bass_staccatissimo_MF_A#4_RR6.opus
</region>

<region>
hivel=90
key=a2
lovel=46
offset=2298
sample=Bass_staccatissimo_MF_A2_RR6.opus
</region>

<region>
hivel=90
key=a3
lovel=46
offset=2391
sample=Bass_staccatissimo_MF_A3_RR6.opus
</region>

<region>
hivel=90
key=a4
lovel=46
offset=3854
sample=Bass_staccatissimo_MF_A4_RR6.opus
</region>

<region>
hivel=90
key=b1
lovel=46
offset=6137
sample=Bass_staccatissimo_MF_B1_RR6.opus
</region>

<region>
hivel=90
key=b2
lovel=46
offset=1456
sample=Bass_staccatissimo_MF_B2_RR6.opus
</region>

<region>
hivel=90
key=b3
lovel=46
offset=760
sample=Bass_staccatissimo_MF_B3_RR6.opus
</region>

<region>
hivel=90
key=c#2
lovel=46
offset=3822
sample=Bass_staccatissimo_MF_C#2_RR6.opus
</region>

<region>
hivel=90
key=c#3
lovel=46
offset=945
sample=Bass_staccatissimo_MF_C#3_RR6.opus
</region>

<region>
hivel=90
key=c#4
lovel=46
offset=6201
sample=Bass_staccatissimo_MF_C#4_RR6.opus
</region>

<region>
hivel=90
key=c2
lovel=46
offset=3163
sample=Bass_staccatissimo_MF_C2_RR6.opus
</region>

<region>
hivel=90
key=c3
lovel=46
offset=1292
sample=Bass_staccatissimo_MF_C3_RR6.opus
</region>

<region>
hivel=90
key=c4
lovel=46
offset=1026
sample=Bass_staccatissimo_MF_C4_RR6.opus
</region>

<region>
hivel=90
key=d#2
lovel=46
offset=3998
sample=Bass_staccatissimo_MF_D#2_RR6.opus
</region>

<region>
hivel=90
key=d#3
lovel=46
offset=1345
sample=Bass_staccatissimo_MF_D#3_RR6.opus
</region>

<region>
hivel=90
key=d#4
lovel=46
offset=1219
sample=Bass_staccatissimo_MF_D#4_RR6.opus
</region>

<region>
hivel=90
key=d2
lovel=46
offset=3748
sample=Bass_staccatissimo_MF_D2_RR6.opus
</region>

<region>
hivel=90
key=d3
lovel=46
offset=1833
sample=Bass_staccatissimo_MF_D3_RR6.opus
</region>

<region>
hivel=90
key=d4
lovel=46
offset=2029
sample=Bass_staccatissimo_MF_D4_RR6.opus
</region>

<region>
hivel=90
key=e2
lovel=46
offset=1292
sample=Bass_staccatissimo_MF_E2_RR6.opus
</region>

<region>
hivel=90
key=e3
lovel=46
offset=1348
sample=Bass_staccatissimo_MF_E3_RR6.opus
</region>

<region>
hivel=90
key=e4
lovel=46
offset=2721
sample=Bass_staccatissimo_MF_E4_RR6.opus
</region>

<region>
hivel=90
key=f#2
lovel=46
offset=3220
sample=Bass_staccatissimo_MF_F#2_RR6.opus
</region>

<region>
hivel=90
key=f#3
lovel=46
offset=1358
sample=Bass_staccatissimo_MF_F#3_RR6.opus
</region>

<region>
hivel=90
key=f#4
lovel=46
offset=5621
sample=Bass_staccatissimo_MF_F#4_RR6.opus
</region>

<region>
hivel=90
key=f2
lovel=46
offset=1670
sample=Bass_staccatissimo_MF_F2_RR6.opus
</region>

<region>
hivel=90
key=f3
lovel=46
offset=950
sample=Bass_staccatissimo_MF_F3_RR6.opus
</region>

<region>
hivel=90
key=f4
lovel=46
offset=6980
sample=Bass_staccatissimo_MF_F4_RR6.opus
</region>

<region>
hivel=90
key=g#2
lovel=46
offset=2938
sample=Bass_staccatissimo_MF_G#2_RR6.opus
</region>

<region>
hivel=90
key=g#3
lovel=46
offset=2043
sample=Bass_staccatissimo_MF_G#3_RR6.opus
</region>

<region>
hivel=90
key=g#4
lovel=46
offset=2707
sample=Bass_staccatissimo_MF_G#4_RR6.opus
</region>

<region>
hivel=90
key=g2
lovel=46
offset=5339
sample=Bass_staccatissimo_MF_G2_RR6.opus
</region>

<region>
hivel=90
key=g3
lovel=46
offset=1250
sample=Bass_staccatissimo_MF_G3_RR6.opus
</region>

<region>
hivel=90
key=g4
lovel=46
offset=2773
sample=Bass_staccatissimo_MF_G4_RR6.opus
</region>

<region>
hivel=45
key=a#1
lovel=0
sample=Bass_staccatissimo_PP_A#1_RR6.opus
</region>

<region>
hivel=45
key=a#2
lovel=0
sample=Bass_staccatissimo_PP_A#2_RR6.opus
</region>

<region>
hivel=45
key=a#3
lovel=0
sample=Bass_staccatissimo_PP_A#3_RR6.opus
</region>

<region>
hikey=G5
hivel=45
lokey=a#4
lovel=0
offset=874
pitch_keycenter=a#4
sample=Bass_staccatissimo_PP_A#4_RR6.opus
</region>

<region>
hivel=45
key=a2
lovel=0
offset=1226
sample=Bass_staccatissimo_PP_A2_RR6.opus
</region>

<region>
hivel=45
key=a3
lovel=0
sample=Bass_staccatissimo_PP_A3_RR6.opus
</region>

<region>
hivel=45
key=a4
lovel=0
offset=2697
sample=Bass_staccatissimo_PP_A4_RR6.opus
</region>

<region>
hivel=45
key=b1
lovel=0
offset=10474
sample=Bass_staccatissimo_PP_B1_RR6.opus
</region>

<region>
hivel=45
key=b2
lovel=0
sample=Bass_staccatissimo_PP_B2_RR6.opus
</region>

<region>
hivel=45
key=b3
lovel=0
offset=5693
sample=Bass_staccatissimo_PP_B3_RR6.opus
</region>

<region>
hivel=45
key=c#2
lovel=0
sample=Bass_staccatissimo_PP_C#2_RR6.opus
</region>

<region>
hivel=45
key=c#3
lovel=0
offset=2834
sample=Bass_staccatissimo_PP_C#3_RR6.opus
</region>

<region>
hivel=45
key=c#4
lovel=0
offset=4580
sample=Bass_staccatissimo_PP_C#4_RR6.opus
</region>

<region>
hivel=45
key=c2
lovel=0
offset=3989
sample=Bass_staccatissimo_PP_C2_RR6.opus
</region>

<region>
hivel=45
key=c3
lovel=0
offset=2730
sample=Bass_staccatissimo_PP_C3_RR6.opus
</region>

<region>
hivel=45
key=c4
lovel=0
offset=4801
sample=Bass_staccatissimo_PP_C4_RR6.opus
</region>

<region>
hivel=45
key=d#2
lovel=0
sample=Bass_staccatissimo_PP_D#2_RR6.opus
</region>

<region>
hivel=45
key=d#3
lovel=0
sample=Bass_staccatissimo_PP_D#3_RR6.opus
</region>

<region>
hivel=45
key=d#4
lovel=0
offset=1547
sample=Bass_staccatissimo_PP_D#4_RR6.opus
</region>

<region>
hivel=45
key=d2
lovel=0
offset=204
sample=Bass_staccatissimo_PP_D2_RR6.opus
</region>

<region>
hivel=45
key=d3
lovel=0
offset=1392
sample=Bass_staccatissimo_PP_D3_RR6.opus
</region>

<region>
hivel=45
key=d4
lovel=0
offset=4486
sample=Bass_staccatissimo_PP_D4_RR6.opus
</region>

<region>
hivel=45
key=e2
lovel=0
offset=19
sample=Bass_staccatissimo_PP_E2_RR6.opus
</region>

<region>
hivel=45
key=e3
lovel=0
offset=1542
sample=Bass_staccatissimo_PP_E3_RR6.opus
</region>

<region>
hivel=45
key=e4
lovel=0
offset=2216
sample=Bass_staccatissimo_PP_E4_RR6.opus
</region>

<region>
hivel=45
key=f#2
lovel=0
offset=6685
sample=Bass_staccatissimo_PP_F#2_RR6.opus
</region>

<region>
hivel=45
key=f#3
lovel=0
offset=1608
sample=Bass_staccatissimo_PP_F#3_RR6.opus
</region>

<region>
hivel=45
key=f#4
lovel=0
offset=5344
sample=Bass_staccatissimo_PP_F#4_RR6.opus
</region>

<region>
hivel=45
key=f2
lovel=0
sample=Bass_staccatissimo_PP_F2_RR6.opus
</region>

<region>
hivel=45
key=f3
lovel=0
offset=1416
sample=Bass_staccatissimo_PP_F3_RR6.opus
</region>

<region>
hivel=45
key=f4
lovel=0
offset=1597
sample=Bass_staccatissimo_PP_F4_RR6.opus
</region>

<region>
hivel=45
key=g#2
lovel=0
offset=1399
sample=Bass_staccatissimo_PP_G#2_RR6.opus
</region>

<region>
hivel=45
key=g#3
lovel=0
offset=224
sample=Bass_staccatissimo_PP_G#3_RR6.opus
</region>

<region>
hivel=45
key=g#4
lovel=0
offset=3503
sample=Bass_staccatissimo_PP_G#4_RR6.opus
</region>

<region>
hivel=45
key=g2
lovel=0
offset=1016
sample=Bass_staccatissimo_PP_G2_RR6.opus
</region>

<region>
hivel=45
key=g3
lovel=0
offset=5330
sample=Bass_staccatissimo_PP_G3_RR6.opus
</region>

<region>
hivel=45
key=g4
lovel=0
offset=3867
sample=Bass_staccatissimo_PP_G4_RR6.opus
</region>
</group>

<group>
group_label=RR7
seq_length=8
seq_position=7

<region>
hivel=127
key=a#1
lovel=91
offset=1267
sample=Bass_staccatissimo_FF_A#1_RR7.opus
</region>

<region>
hivel=127
key=a#2
lovel=91
offset=2342
sample=Bass_staccatissimo_FF_A#2_RR7.opus
</region>

<region>
hivel=127
key=a#3
lovel=91
offset=1073
sample=Bass_staccatissimo_FF_A#3_RR7.opus
</region>

<region>
hikey=G5
hivel=127
lokey=a#4
lovel=91
offset=1386
pitch_keycenter=a#4
sample=Bass_staccatissimo_FF_A#4_RR7.opus
</region>

<region>
hivel=127
key=a2
lovel=91
offset=1639
sample=Bass_staccatissimo_FF_A2_RR7.opus
</region>

<region>
hivel=127
key=a3
lovel=91
offset=2318
sample=Bass_staccatissimo_FF_A3_RR7.opus
</region>

<region>
hivel=127
key=a4
lovel=91
offset=2278
sample=Bass_staccatissimo_FF_A4_RR7.opus
</region>

<region>
hivel=127
key=b1
lovel=91
offset=8268
sample=Bass_staccatissimo_FF_B1_RR7.opus
</region>

<region>
hivel=127
key=b2
lovel=91
offset=2858
sample=Bass_staccatissimo_FF_B2_RR7.opus
</region>

<region>
hivel=127
key=b3
lovel=91
offset=1457
sample=Bass_staccatissimo_FF_B3_RR7.opus
</region>

<region>
hivel=127
key=c#2
lovel=91
offset=3145
sample=Bass_staccatissimo_FF_C#2_RR7.opus
</region>

<region>
hivel=127
key=c#3
lovel=91
offset=1201
sample=Bass_staccatissimo_FF_C#3_RR7.opus
</region>

<region>
hivel=127
key=c#4
lovel=91
offset=1862
sample=Bass_staccatissimo_FF_C#4_RR7.opus
</region>

<region>
hivel=127
key=c2
lovel=91
offset=7484
sample=Bass_staccatissimo_FF_C2_RR7.opus
</region>

<region>
hivel=127
key=c3
lovel=91
offset=1034
sample=Bass_staccatissimo_FF_C3_RR7.opus
</region>

<region>
hivel=127
key=c4
lovel=91
offset=864
sample=Bass_staccatissimo_FF_C4_RR7.opus
</region>

<region>
hivel=127
key=d#2
lovel=91
offset=2133
sample=Bass_staccatissimo_FF_D#2_RR7.opus
</region>

<region>
hivel=127
key=d#3
lovel=91
offset=728
sample=Bass_staccatissimo_FF_D#3_RR7.opus
</region>

<region>
hivel=127
key=d#4
lovel=91
offset=1638
sample=Bass_staccatissimo_FF_D#4_RR7.opus
</region>

<region>
hivel=127
key=d2
lovel=91
offset=3323
sample=Bass_staccatissimo_FF_D2_RR7.opus
</region>

<region>
hivel=127
key=d3
lovel=91
offset=778
sample=Bass_staccatissimo_FF_D3_RR7.opus
</region>

<region>
hivel=127
key=d4
lovel=91
offset=1391
sample=Bass_staccatissimo_FF_D4_RR7.opus
</region>

<region>
hivel=127
key=e2
lovel=91
offset=2307
sample=Bass_staccatissimo_FF_E2_RR7.opus
</region>

<region>
hivel=127
key=e3
lovel=91
offset=419
sample=Bass_staccatissimo_FF_E3_RR7.opus
</region>

<region>
hivel=127
key=e4
lovel=91
offset=3941
sample=Bass_staccatissimo_FF_E4_RR7.opus
</region>

<region>
hivel=127
key=f#2
lovel=91
offset=2629
sample=Bass_staccatissimo_FF_F#2_RR7.opus
</region>

<region>
hivel=127
key=f#3
lovel=91
offset=1238
sample=Bass_staccatissimo_FF_F#3_RR7.opus
</region>

<region>
hivel=127
key=f#4
lovel=91
offset=2012
sample=Bass_staccatissimo_FF_F#4_RR7.opus
</region>

<region>
hivel=127
key=f2
lovel=91
offset=1239
sample=Bass_staccatissimo_FF_F2_RR7.opus
</region>

<region>
hivel=127
key=f3
lovel=91
offset=747
sample=Bass_staccatissimo_FF_F3_RR7.opus
</region>

<region>
hivel=127
key=f4
lovel=91
offset=2538
sample=Bass_staccatissimo_FF_F4_RR7.opus
</region>

<region>
hivel=127
key=g#2
lovel=91
offset=1426
sample=Bass_staccatissimo_FF_G#2_RR7.opus
</region>

<region>
hivel=127
key=g#3
lovel=91
offset=502
sample=Bass_staccatissimo_FF_G#3_RR7.opus
</region>

<region>
hivel=127
key=g#4
lovel=91
offset=1684
sample=Bass_staccatissimo_FF_G#4_RR7.opus
</region>

<region>
hivel=127
key=g2
lovel=91
offset=1295
sample=Bass_staccatissimo_FF_G2_RR7.opus
</region>

<region>
hivel=127
key=g3
lovel=91
offset=999
sample=Bass_staccatissimo_FF_G3_RR7.opus
</region>

<region>
hivel=127
key=g4
lovel=91
offset=2655
sample=Bass_staccatissimo_FF_G4_RR7.opus
</region>

<region>
hivel=90
key=a#1
lovel=46
offset=2051
sample=Bass_staccatissimo_MF_A#1_RR7.opus
</region>

<region>
hivel=90
key=a#2
lovel=46
offset=2275
sample=Bass_staccatissimo_MF_A#2_RR7.opus
</region>

<region>
hivel=90
key=a#3
lovel=46
offset=1829
sample=Bass_staccatissimo_MF_A#3_RR7.opus
</region>

<region>
hikey=G5
hivel=90
lokey=a#4
lovel=46
offset=1621
pitch_keycenter=a#4
sample=Bass_staccatissimo_MF_A#4_RR7.opus
</region>

<region>
hivel=90
key=a2
lovel=46
offset=1341
sample=Bass_staccatissimo_MF_A2_RR7.opus
</region>

<region>
hivel=90
key=a3
lovel=46
offset=1468
sample=Bass_staccatissimo_MF_A3_RR7.opus
</region>

<region>
hivel=90
key=a4
lovel=46
offset=3044
sample=Bass_staccatissimo_MF_A4_RR7.opus
</region>

<region>
hivel=90
key=b1
lovel=46
offset=3429
sample=Bass_staccatissimo_MF_B1_RR7.opus
</region>

<region>
hivel=90
key=b2
lovel=46
offset=757
sample=Bass_staccatissimo_MF_B2_RR7.opus
</region>

<region>
hivel=90
key=b3
lovel=46
offset=5140
sample=Bass_staccatissimo_MF_B3_RR7.opus
</region>

<region>
hivel=90
key=c#2
lovel=46
offset=4943
sample=Bass_staccatissimo_MF_C#2_RR7.opus
</region>

<region>
hivel=90
key=c#3
lovel=46
offset=1222
sample=Bass_staccatissimo_MF_C#3_RR7.opus
</region>

<region>
hivel=90
key=c#4
lovel=46
offset=5713
sample=Bass_staccatissimo_MF_C#4_RR7.opus
</region>

<region>
hivel=90
key=c2
lovel=46
offset=3564
sample=Bass_staccatissimo_MF_C2_RR7.opus
</region>

<region>
hivel=90
key=c3
lovel=46
offset=1552
sample=Bass_staccatissimo_MF_C3_RR7.opus
</region>

<region>
hivel=90
key=c4
lovel=46
offset=462
sample=Bass_staccatissimo_MF_C4_RR7.opus
</region>

<region>
hivel=90
key=d#2
lovel=46
offset=1394
sample=Bass_staccatissimo_MF_D#2_RR7.opus
</region>

<region>
hivel=90
key=d#3
lovel=46
offset=1074
sample=Bass_staccatissimo_MF_D#3_RR7.opus
</region>

<region>
hivel=90
key=d#4
lovel=46
offset=1165
sample=Bass_staccatissimo_MF_D#4_RR7.opus
</region>

<region>
hivel=90
key=d2
lovel=46
offset=858
sample=Bass_staccatissimo_MF_D2_RR7.opus
</region>

<region>
hivel=90
key=d3
lovel=46
offset=876
sample=Bass_staccatissimo_MF_D3_RR7.opus
</region>

<region>
hivel=90
key=d4
lovel=46
offset=1079
sample=Bass_staccatissimo_MF_D4_RR7.opus
</region>

<region>
hivel=90
key=e2
lovel=46
offset=1280
sample=Bass_staccatissimo_MF_E2_RR7.opus
</region>

<region>
hivel=90
key=e3
lovel=46
offset=980
sample=Bass_staccatissimo_MF_E3_RR7.opus
</region>

<region>
hivel=90
key=e4
lovel=46
offset=6255
sample=Bass_staccatissimo_MF_E4_RR7.opus
</region>

<region>
hivel=90
key=f#2
lovel=46
offset=1026
sample=Bass_staccatissimo_MF_F#2_RR7.opus
</region>

<region>
hivel=90
key=f#3
lovel=46
offset=766
sample=Bass_staccatissimo_MF_F#3_RR7.opus
</region>

<region>
hivel=90
key=f#4
lovel=46
offset=7427
sample=Bass_staccatissimo_MF_F#4_RR7.opus
</region>

<region>
hivel=90
key=f2
lovel=46
offset=717
sample=Bass_staccatissimo_MF_F2_RR7.opus
</region>

<region>
hivel=90
key=f3
lovel=46
offset=921
sample=Bass_staccatissimo_MF_F3_RR7.opus
</region>

<region>
hivel=90
key=f4
lovel=46
offset=6446
sample=Bass_staccatissimo_MF_F4_RR7.opus
</region>

<region>
hivel=90
key=g#2
lovel=46
offset=1046
sample=Bass_staccatissimo_MF_G#2_RR7.opus
</region>

<region>
hivel=90
key=g#3
lovel=46
offset=900
sample=Bass_staccatissimo_MF_G#3_RR7.opus
</region>

<region>
hivel=90
key=g#4
lovel=46
offset=3216
sample=Bass_staccatissimo_MF_G#4_RR7.opus
</region>

<region>
hivel=90
key=g2
lovel=46
offset=6933
sample=Bass_staccatissimo_MF_G2_RR7.opus
</region>

<region>
hivel=90
key=g3
lovel=46
offset=1495
sample=Bass_staccatissimo_MF_G3_RR7.opus
</region>

<region>
hivel=90
key=g4
lovel=46
offset=2705
sample=Bass_staccatissimo_MF_G4_RR7.opus
</region>

<region>
hivel=45
key=a#1
lovel=0
offset=417
sample=Bass_staccatissimo_PP_A#1_RR7.opus
</region>

<region>
hivel=45
key=a#2
lovel=0
offset=5005
sample=Bass_staccatissimo_PP_A#2_RR7.opus
</region>

<region>
hivel=45
key=a#3
lovel=0
sample=Bass_staccatissimo_PP_A#3_RR7.opus
</region>

<region>
hikey=G5
hivel=45
lokey=a#4
lovel=0
offset=2250
pitch_keycenter=a#4
sample=Bass_staccatissimo_PP_A#4_RR7.opus
</region>

<region>
hivel=45
key=a2
lovel=0
sample=Bass_staccatissimo_PP_A2_RR7.opus
</region>

<region>
hivel=45
key=a4
lovel=0
offset=2342
sample=Bass_staccatissimo_PP_A4_RR7.opus
</region>

<region>
hivel=45
key=b1
lovel=0
offset=5628
sample=Bass_staccatissimo_PP_B1_RR7.opus
</region>

<region>
hivel=45
key=b2
lovel=0
offset=358
sample=Bass_staccatissimo_PP_B2_RR7.opus
</region>

<region>
hivel=45
key=b3
lovel=0
offset=1011
sample=Bass_staccatissimo_PP_B3_RR7.opus
</region>

<region>
hivel=45
key=c#2
lovel=0
offset=194
sample=Bass_staccatissimo_PP_C#2_RR7.opus
</region>

<region>
hivel=45
key=c#3
lovel=0
offset=2016
sample=Bass_staccatissimo_PP_C#3_RR7.opus
</region>

<region>
hivel=45
key=c#4
lovel=0
offset=4787
sample=Bass_staccatissimo_PP_C#4_RR7.opus
</region>

<region>
hivel=45
key=c2
lovel=0
offset=964
sample=Bass_staccatissimo_PP_C2_RR7.opus
</region>

<region>
hivel=45
key=c3
lovel=0
offset=1327
sample=Bass_staccatissimo_PP_C3_RR7.opus
</region>

<region>
hivel=45
key=c4
lovel=0
offset=1884
sample=Bass_staccatissimo_PP_C4_RR7.opus
</region>

<region>
hivel=45
key=d#2
lovel=0
offset=2766
sample=Bass_staccatissimo_PP_D#2_RR7.opus
</region>

<region>
hivel=45
key=d#3
lovel=0
sample=Bass_staccatissimo_PP_D#3_RR7.opus
</region>

<region>
hivel=45
key=d#4
lovel=0
offset=5030
sample=Bass_staccatissimo_PP_D#4_RR7.opus
</region>

<region>
hivel=45
key=d2
lovel=0
offset=5668
sample=Bass_staccatissimo_PP_D2_RR7.opus
</region>

<region>
hivel=45
key=d3
lovel=0
offset=1567
sample=Bass_staccatissimo_PP_D3_RR7.opus
</region>

<region>
hivel=45
key=d4
lovel=0
offset=1967
sample=Bass_staccatissimo_PP_D4_RR7.opus
</region>

<region>
hivel=45
key=e2
lovel=0
offset=6044
sample=Bass_staccatissimo_PP_E2_RR7.opus
</region>

<region>
hivel=45
key=e3
lovel=0
offset=1011
sample=Bass_staccatissimo_PP_E3_RR7.opus
</region>

<region>
hivel=45
key=e4
lovel=0
offset=3066
sample=Bass_staccatissimo_PP_E4_RR7.opus
</region>

<region>
hivel=45
key=f#2
lovel=0
offset=4614
sample=Bass_staccatissimo_PP_F#2_RR7.opus
</region>

<region>
hivel=45
key=f#3
lovel=0
offset=579
sample=Bass_staccatissimo_PP_F#3_RR7.opus
</region>

<region>
hivel=45
key=f#4
lovel=0
offset=3605
sample=Bass_staccatissimo_PP_F#4_RR7.opus
</region>

<region>
hivel=45
key=f2
lovel=0
offset=6691
sample=Bass_staccatissimo_PP_F2_RR7.opus
</region>

<region>
hivel=45
key=f3
lovel=0
offset=3175
sample=Bass_staccatissimo_PP_F3_RR7.opus
</region>

<region>
hivel=45
key=f4
lovel=0
offset=1202
sample=Bass_staccatissimo_PP_F4_RR7.opus
</region>

<region>
hivel=45
key=g#2
lovel=0
offset=3597
sample=Bass_staccatissimo_PP_G#2_RR7.opus
</region>

<region>
hivel=45
key=g#3
lovel=0
offset=459
sample=Bass_staccatissimo_PP_G#3_RR7.opus
</region>

<region>
hivel=45
key=g#4
lovel=0
offset=4740
sample=Bass_staccatissimo_PP_G#4_RR7.opus
</region>

<region>
hivel=45
key=g2
lovel=0
offset=6505
sample=Bass_staccatissimo_PP_G2_RR7.opus
</region>

<region>
hivel=45
key=g3
lovel=0
offset=5147
sample=Bass_staccatissimo_PP_G3_RR7.opus
</region>

<region>
hivel=45
key=g4
lovel=0
offset=3717
sample=Bass_staccatissimo_PP_G4_RR7.opus
</region>
</group>

<group>
group_label=RR8
seq_length=8
seq_position=8

<region>
hivel=127
key=a#1
lovel=91
offset=2064
sample=Bass_staccatissimo_FF_A#1_RR8.opus
</region>

<region>
hivel=127
key=a#2
lovel=91
offset=2461
sample=Bass_staccatissimo_FF_A#2_RR8.opus
</region>

<region>
hivel=127
key=a#3
lovel=91
offset=1096
sample=Bass_staccatissimo_FF_A#3_RR8.opus
</region>

<region>
hikey=G5
hivel=127
lokey=a#4
lovel=91
offset=2785
pitch_keycenter=a#4
sample=Bass_staccatissimo_FF_A#4_RR8.opus
</region>

<region>
hivel=127
key=a2
lovel=91
offset=2627
sample=Bass_staccatissimo_FF_A2_RR8.opus
</region>

<region>
hivel=127
key=a3
lovel=91
offset=1523
sample=Bass_staccatissimo_FF_A3_RR8.opus
</region>

<region>
hivel=127
key=a4
lovel=91
offset=2356
sample=Bass_staccatissimo_FF_A4_RR8.opus
</region>

<region>
hivel=127
key=b1
lovel=91
offset=1674
sample=Bass_staccatissimo_FF_B1_RR8.opus
</region>

<region>
hivel=127
key=b2
lovel=91
offset=1669
sample=Bass_staccatissimo_FF_B2_RR8.opus
</region>

<region>
hivel=127
key=b3
lovel=91
offset=1218
sample=Bass_staccatissimo_FF_B3_RR8.opus
</region>

<region>
hivel=127
key=c#2
lovel=91
offset=1919
sample=Bass_staccatissimo_FF_C#2_RR8.opus
</region>

<region>
hivel=127
key=c#3
lovel=91
offset=1325
sample=Bass_staccatissimo_FF_C#3_RR8.opus
</region>

<region>
hivel=127
key=c#4
lovel=91
offset=1418
sample=Bass_staccatissimo_FF_C#4_RR8.opus
</region>

<region>
hivel=127
key=c2
lovel=91
offset=5226
sample=Bass_staccatissimo_FF_C2_RR8.opus
</region>

<region>
hivel=127
key=c3
lovel=91
offset=2687
sample=Bass_staccatissimo_FF_C3_RR8.opus
</region>

<region>
hivel=127
key=c4
lovel=91
offset=1303
sample=Bass_staccatissimo_FF_C4_RR8.opus
</region>

<region>
hivel=127
key=d#2
lovel=91
offset=3391
sample=Bass_staccatissimo_FF_D#2_RR8.opus
</region>

<region>
hivel=127
key=d#3
lovel=91
offset=441
sample=Bass_staccatissimo_FF_D#3_RR8.opus
</region>

<region>
hivel=127
key=d#4
lovel=91
offset=1959
sample=Bass_staccatissimo_FF_D#4_RR8.opus
</region>

<region>
hivel=127
key=d2
lovel=91
offset=4063
sample=Bass_staccatissimo_FF_D2_RR8.opus
</region>

<region>
hivel=127
key=d3
lovel=91
offset=677
sample=Bass_staccatissimo_FF_D3_RR8.opus
</region>

<region>
hivel=127
key=d4
lovel=91
offset=1900
sample=Bass_staccatissimo_FF_D4_RR8.opus
</region>

<region>
hivel=127
key=e2
lovel=91
offset=1238
sample=Bass_staccatissimo_FF_E2_RR8.opus
</region>

<region>
hivel=127
key=e3
lovel=91
offset=889
sample=Bass_staccatissimo_FF_E3_RR8.opus
</region>

<region>
hivel=127
key=e4
lovel=91
offset=1975
sample=Bass_staccatissimo_FF_E4_RR8.opus
</region>

<region>
hivel=127
key=f#2
lovel=91
offset=1752
sample=Bass_staccatissimo_FF_F#2_RR8.opus
</region>

<region>
hivel=127
key=f#3
lovel=91
offset=1639
sample=Bass_staccatissimo_FF_F#3_RR8.opus
</region>

<region>
hivel=127
key=f#4
lovel=91
offset=1918
sample=Bass_staccatissimo_FF_F#4_RR8.opus
</region>

<region>
hivel=127
key=f2
lovel=91
offset=1173
sample=Bass_staccatissimo_FF_F2_RR8.opus
</region>

<region>
hivel=127
key=f3
lovel=91
offset=871
sample=Bass_staccatissimo_FF_F3_RR8.opus
</region>

<region>
hivel=127
key=f4
lovel=91
offset=2012
sample=Bass_staccatissimo_FF_F4_RR8.opus
</region>

<region>
hivel=127
key=g#2
lovel=91
offset=2931
sample=Bass_staccatissimo_FF_G#2_RR8.opus
</region>

<region>
hivel=127
key=g#3
lovel=91
offset=1082
sample=Bass_staccatissimo_FF_G#3_RR8.opus
</region>

<region>
hivel=127
key=g#4
lovel=91
offset=3576
sample=Bass_staccatissimo_FF_G#4_RR8.opus
</region>

<region>
hivel=127
key=g2
lovel=91
offset=1065
sample=Bass_staccatissimo_FF_G2_RR8.opus
</region>

<region>
hivel=127
key=g3
lovel=91
offset=1525
sample=Bass_staccatissimo_FF_G3_RR8.opus
</region>

<region>
hivel=127
key=g4
lovel=91
offset=2026
sample=Bass_staccatissimo_FF_G4_RR8.opus
</region>

<region>
hivel=90
key=a#1
lovel=46
offset=1263
sample=Bass_staccatissimo_MF_A#1_RR8.opus
</region>

<region>
hivel=90
key=a#2
lovel=46
offset=1630
sample=Bass_staccatissimo_MF_A#2_RR8.opus
</region>

<region>
hivel=90
key=a#3
lovel=46
offset=2802
sample=Bass_staccatissimo_MF_A#3_RR8.opus
</region>

<region>
hikey=G5
hivel=90
lokey=a#4
lovel=46
offset=2162
pitch_keycenter=a#4
sample=Bass_staccatissimo_MF_A#4_RR8.opus
</region>

<region>
hivel=90
key=a2
lovel=46
offset=2981
sample=Bass_staccatissimo_MF_A2_RR8.opus
</region>

<region>
hivel=90
key=a3
lovel=46
offset=1555
sample=Bass_staccatissimo_MF_A3_RR8.opus
</region>

<region>
hivel=90
key=a4
lovel=46
offset=2520
sample=Bass_staccatissimo_MF_A4_RR8.opus
</region>

<region>
hivel=90
key=b1
lovel=46
offset=2945
sample=Bass_staccatissimo_MF_B1_RR8.opus
</region>

<region>
hivel=90
key=b2
lovel=46
offset=817
sample=Bass_staccatissimo_MF_B2_RR8.opus
</region>

<region>
hivel=90
key=b3
lovel=46
offset=730
sample=Bass_staccatissimo_MF_B3_RR8.opus
</region>

<region>
hivel=90
key=c#2
lovel=46
offset=4653
sample=Bass_staccatissimo_MF_C#2_RR8.opus
</region>

<region>
hivel=90
key=c#3
lovel=46
offset=2056
sample=Bass_staccatissimo_MF_C#3_RR8.opus
</region>

<region>
hivel=90
key=c#4
lovel=46
offset=5500
sample=Bass_staccatissimo_MF_C#4_RR8.opus
</region>

<region>
hivel=90
key=c2
lovel=46
offset=5393
sample=Bass_staccatissimo_MF_C2_RR8.opus
</region>

<region>
hivel=90
key=c3
lovel=46
offset=1117
sample=Bass_staccatissimo_MF_C3_RR8.opus
</region>

<region>
hivel=90
key=c4
lovel=46
offset=4705
sample=Bass_staccatissimo_MF_C4_RR8.opus
</region>

<region>
hivel=90
key=d#2
lovel=46
offset=2780
sample=Bass_staccatissimo_MF_D#2_RR8.opus
</region>

<region>
hivel=90
key=d#3
lovel=46
offset=767
sample=Bass_staccatissimo_MF_D#3_RR8.opus
</region>

<region>
hivel=90
key=d#4
lovel=46
offset=1171
sample=Bass_staccatissimo_MF_D#4_RR8.opus
</region>

<region>
hivel=90
key=d2
lovel=46
offset=1439
sample=Bass_staccatissimo_MF_D2_RR8.opus
</region>

<region>
hivel=90
key=d3
lovel=46
offset=1040
sample=Bass_staccatissimo_MF_D3_RR8.opus
</region>

<region>
hivel=90
key=d4
lovel=46
offset=1039
sample=Bass_staccatissimo_MF_D4_RR8.opus
</region>

<region>
hivel=90
key=e2
lovel=46
offset=1967
sample=Bass_staccatissimo_MF_E2_RR8.opus
</region>

<region>
hivel=90
key=e3
lovel=46
offset=1023
sample=Bass_staccatissimo_MF_E3_RR8.opus
</region>

<region>
hivel=90
key=e4
lovel=46
offset=11776
sample=Bass_staccatissimo_MF_E4_RR8.opus
</region>

<region>
hivel=90
key=f#2
lovel=46
offset=1870
sample=Bass_staccatissimo_MF_F#2_RR8.opus
</region>

<region>
hivel=90
key=f#3
lovel=46
offset=562
sample=Bass_staccatissimo_MF_F#3_RR8.opus
</region>

<region>
hivel=90
key=f#4
lovel=46
offset=3501
sample=Bass_staccatissimo_MF_F#4_RR8.opus
</region>

<region>
hivel=90
key=f2
lovel=46
offset=1665
sample=Bass_staccatissimo_MF_F2_RR8.opus
</region>

<region>
hivel=90
key=f3
lovel=46
offset=1946
sample=Bass_staccatissimo_MF_F3_RR8.opus
</region>

<region>
hivel=90
key=f4
lovel=46
offset=7556
sample=Bass_staccatissimo_MF_F4_RR8.opus
</region>

<region>
hivel=90
key=g#2
lovel=46
offset=2288
sample=Bass_staccatissimo_MF_G#2_RR8.opus
</region>

<region>
hivel=90
key=g#3
lovel=46
offset=895
sample=Bass_staccatissimo_MF_G#3_RR8.opus
</region>

<region>
hivel=90
key=g#4
lovel=46
offset=2859
sample=Bass_staccatissimo_MF_G#4_RR8.opus
</region>

<region>
hivel=90
key=g2
lovel=46
offset=4295
sample=Bass_staccatissimo_MF_G2_RR8.opus
</region>

<region>
hivel=90
key=g3
lovel=46
offset=1238
sample=Bass_staccatissimo_MF_G3_RR8.opus
</region>

<region>
hivel=90
key=g4
lovel=46
offset=7117
sample=Bass_staccatissimo_MF_G4_RR8.opus
</region>

<region>
hivel=45
key=a#1
lovel=0
sample=Bass_staccatissimo_PP_A#1_RR8.opus
</region>

<region>
hivel=45
key=a#2
lovel=0
offset=4051
sample=Bass_staccatissimo_PP_A#2_RR8.opus
</region>

<region>
hivel=45
key=a#3
lovel=0
sample=Bass_staccatissimo_PP_A#3_RR8.opus
</region>

<region>
hikey=G5
hivel=45
lokey=a#4
lovel=0
offset=1987
pitch_keycenter=a#4
sample=Bass_staccatissimo_PP_A#4_RR8.opus
</region>

<region>
hivel=45
key=a2
lovel=0
offset=2991
sample=Bass_staccatissimo_PP_A2_RR8.opus
</region>

<region>
hivel=45
key=a3
lovel=0
sample=Bass_staccatissimo_PP_A3_RR8.opus
</region>

<region>
hivel=45
key=a4
lovel=0
offset=3585
sample=Bass_staccatissimo_PP_A4_RR8.opus
</region>

<region>
hivel=45
key=b1
lovel=0
offset=14318
sample=Bass_staccatissimo_PP_B1_RR8.opus
</region>

<region>
hivel=45
key=b2
lovel=0
offset=1530
sample=Bass_staccatissimo_PP_B2_RR8.opus
</region>

<region>
hivel=45
key=b3
lovel=0
sample=Bass_staccatissimo_PP_B3_RR8.opus
</region>

<region>
hivel=45
key=c#2
lovel=0
offset=920
sample=Bass_staccatissimo_PP_C#2_RR8.opus
</region>

<region>
hivel=45
key=c#3
lovel=0
offset=201
sample=Bass_staccatissimo_PP_C#3_RR8.opus
</region>

<region>
hivel=45
key=c#4
lovel=0
offset=4436
sample=Bass_staccatissimo_PP_C#4_RR8.opus
</region>

<region>
hivel=45
key=c2
lovel=0
offset=6873
sample=Bass_staccatissimo_PP_C2_RR8.opus
</region>

<region>
hivel=45
key=c3
lovel=0
offset=2601
sample=Bass_staccatissimo_PP_C3_RR8.opus
</region>

<region>
hivel=45
key=c4
lovel=0
offset=6717
sample=Bass_staccatissimo_PP_C4_RR8.opus
</region>

<region>
hivel=45
key=d#2
lovel=0
offset=6075
sample=Bass_staccatissimo_PP_D#2_RR8.opus
</region>

<region>
hivel=45
key=d#3
lovel=0
offset=1993
sample=Bass_staccatissimo_PP_D#3_RR8.opus
</region>

<region>
hivel=45
key=d#4
lovel=0
offset=6252
sample=Bass_staccatissimo_PP_D#4_RR8.opus
</region>

<region>
hivel=45
key=d2
lovel=0
offset=5315
sample=Bass_staccatissimo_PP_D2_RR8.opus
</region>

<region>
hivel=45
key=d3
lovel=0
offset=2639
sample=Bass_staccatissimo_PP_D3_RR8.opus
</region>

<region>
hivel=45
key=d4
lovel=0
offset=3022
sample=Bass_staccatissimo_PP_D4_RR8.opus
</region>

<region>
hivel=45
key=e2
lovel=0
offset=571
sample=Bass_staccatissimo_PP_E2_RR8.opus
</region>

<region>
hivel=45
key=e3
lovel=0
offset=1488
sample=Bass_staccatissimo_PP_E3_RR8.opus
</region>

<region>
hivel=45
key=e4
lovel=0
offset=2829
sample=Bass_staccatissimo_PP_E4_RR8.opus
</region>

<region>
hivel=45
key=f#2
lovel=0
offset=2750
sample=Bass_staccatissimo_PP_F#2_RR8.opus
</region>

<region>
hivel=45
key=f#3
lovel=0
offset=2187
sample=Bass_staccatissimo_PP_F#3_RR8.opus
</region>

<region>
hivel=45
key=f#4
lovel=0
offset=2069
sample=Bass_staccatissimo_PP_F#4_RR8.opus
</region>

<region>
hivel=45
key=f2
lovel=0
sample=Bass_staccatissimo_PP_F2_RR8.opus
</region>

<region>
hivel=45
key=f3
lovel=0
offset=2770
sample=Bass_staccatissimo_PP_F3_RR8.opus
</region>

<region>
hivel=45
key=f4
lovel=0
offset=437
sample=Bass_staccatissimo_PP_F4_RR8.opus
</region>

<region>
hivel=45
key=g#2
lovel=0
offset=944
sample=Bass_staccatissimo_PP_G#2_RR8.opus
</region>

<region>
hivel=45
key=g#3
lovel=0
offset=4061
sample=Bass_staccatissimo_PP_G#3_RR8.opus
</region>

<region>
hivel=45
key=g#4
lovel=0
offset=4281
sample=Bass_staccatissimo_PP_G#4_RR8.opus
</region>

<region>
hivel=45
key=g2
lovel=0
offset=3371
sample=Bass_staccatissimo_PP_G2_RR8.opus
</region>

<region>
hivel=45
key=g3
lovel=0
offset=3154
sample=Bass_staccatissimo_PP_G3_RR8.opus
</region>

<region>
hivel=45
key=g4
lovel=0
offset=3102
sample=Bass_staccatissimo_PP_G4_RR8.opus
</region>
</group>